<?xml version="1.0" encoding="UTF-8" standalone="no"?><!DOCTYPE svg PUBLIC "-//W3C//DTD SVG 1.1//EN" "http://www.w3.org/Graphics/SVG/1.1/DTD/svg11.dtd"><svg width="100%" height="100%" viewBox="0 0 1366 768" version="1.1" xmlns="http://www.w3.org/2000/svg" xmlns:xlink="http://www.w3.org/1999/xlink" xml:space="preserve" xmlns:serif="http://www.serif.com/" style="fill-rule:evenodd;clip-rule:evenodd;stroke-linejoin:round;stroke-miterlimit:1.41421;"><rect id="Artboard2" x="0" y="0" width="1366" height="768" style="fill:none;"/><clipPath id="_clip1"><rect id="Artboard21" serif:id="Artboard2" x="0" y="0" width="1366" height="768"/></clipPath><g clip-path="url(#_clip1)"><g><g opacity="0.2"><g id="Items-bg" serif:id="Items bg"><path d="M168.072,535.559l-1.255,2.744l-2.743,1.255l2.743,1.255l1.255,2.744l1.255,-2.744l2.744,-1.255l-2.744,-1.255l-1.255,-2.744Zm-10,-11.001l-2.505,5.494l-5.492,2.51l5.492,2.504l2.505,5.493l2.505,-5.493l5.499,-2.504l-5.499,-2.51l-2.505,-5.494Zm-60.311,8.005c-1.66,0 -3,1.34 -3,3c0,1.31 -1.16,2 -2,2c0.92,1.22 2.49,2 4,2c2.21,0 4,-1.79 4,-4c0,-1.66 -1.34,-3 -3,-3Zm13.71,-9.37l-1.34,-1.34c-0.39,-0.39 -1.02,-0.39 -1.41,0l-8.96,8.96l2.75,2.75l8.96,-8.96c0.39,-0.39 0.39,-1.02 0,-1.41Zm56.601,-1.633l-1.255,2.744l-2.743,1.255l2.743,1.255l1.255,2.744l1.255,-2.744l2.744,-1.255l-2.744,-1.255l-1.255,-2.744Zm-31.001,-16.001l-14,0c-1.1,0 -2,-0.9 -2,-2l0,-14l2,0l0,14l14,0l0,2Zm4,-4l-14,0c-1.11,0 -2,-0.9 -2,-2l0,-14c0,-1.1 0.89,-2 2,-2l12,0l4,4l0,12c0,1.099 -0.9,1.999 -2,2Zm-7,-2c1.66,0 3,-1.34 3,-3c0,-1.66 -1.34,-3 -3,-3c-1.66,0 -3,1.34 -3,3c0,1.66 1.34,3 3,3Zm3,-10l0,-4l-10,0l0,4l10,0Zm-25.816,-36.357c-0.002,-0.011 -0.004,-0.022 -0.006,-0.034c-0.004,-0.021 -0.008,-0.043 -0.014,-0.064c-0.003,-0.013 -0.008,-0.026 -0.012,-0.038c-0.006,-0.019 -0.012,-0.038 -0.02,-0.056c-0.005,-0.013 -0.011,-0.026 -0.017,-0.038c-0.008,-0.018 -0.017,-0.035 -0.026,-0.051c-0.007,-0.013 -0.015,-0.024 -0.022,-0.036c-0.011,-0.016 -0.021,-0.032 -0.033,-0.047c-0.009,-0.011 -0.018,-0.023 -0.027,-0.034c-0.012,-0.014 -0.025,-0.028 -0.038,-0.041c-0.01,-0.011 -0.02,-0.021 -0.031,-0.031c-0.014,-0.012 -0.029,-0.025 -0.044,-0.037c-0.011,-0.009 -0.023,-0.018 -0.035,-0.026c-0.004,-0.003 -0.008,-0.007 -0.013,-0.01l-8.226,-5.484c-0.26,-0.173 -0.598,-0.173 -0.858,0l-8.227,5.484c-0.004,0.003 -0.008,0.007 -0.012,0.01c-0.012,0.008 -0.024,0.017 -0.035,0.026c-0.015,0.012 -0.03,0.025 -0.044,0.037c-0.011,0.01 -0.021,0.02 -0.031,0.031c-0.013,0.013 -0.026,0.027 -0.038,0.041c-0.01,0.011 -0.019,0.023 -0.027,0.034c-0.011,0.015 -0.022,0.031 -0.033,0.047c-0.007,0.012 -0.015,0.023 -0.022,0.036c-0.009,0.016 -0.018,0.033 -0.026,0.051c-0.006,0.012 -0.012,0.025 -0.017,0.038c-0.008,0.018 -0.014,0.037 -0.02,0.056c-0.004,0.012 -0.009,0.025 -0.012,0.038c-0.006,0.021 -0.01,0.043 -0.014,0.064c-0.002,0.012 -0.005,0.023 -0.006,0.034c-0.004,0.033 -0.007,0.067 -0.007,0.101l0,5.484c0,0.034 0.003,0.068 0.007,0.101c0.001,0.011 0.004,0.023 0.006,0.034c0.004,0.021 0.008,0.043 0.014,0.064c0.003,0.013 0.008,0.026 0.012,0.038c0.006,0.019 0.012,0.038 0.02,0.057c0.005,0.013 0.011,0.025 0.017,0.037c0.008,0.018 0.017,0.035 0.026,0.052c0.007,0.012 0.015,0.023 0.022,0.035c0.011,0.016 0.022,0.032 0.033,0.047c0.008,0.012 0.017,0.023 0.027,0.034c0.012,0.014 0.025,0.028 0.038,0.041c0.01,0.011 0.02,0.021 0.031,0.031c0.014,0.012 0.029,0.025 0.044,0.037c0.011,0.009 0.023,0.018 0.035,0.026c0.004,0.003 0.008,0.007 0.012,0.009l8.227,5.485c0.13,0.087 0.279,0.13 0.429,0.13c0.149,0 0.299,-0.043 0.429,-0.13l8.226,-5.485c0.005,-0.002 0.009,-0.006 0.013,-0.009c0.012,-0.008 0.024,-0.017 0.035,-0.026c0.015,-0.012 0.03,-0.025 0.044,-0.037c0.011,-0.01 0.021,-0.02 0.031,-0.031c0.013,-0.013 0.026,-0.027 0.038,-0.041c0.009,-0.011 0.018,-0.022 0.027,-0.034c0.012,-0.015 0.022,-0.031 0.033,-0.047c0.007,-0.012 0.015,-0.023 0.022,-0.035c0.009,-0.017 0.018,-0.034 0.026,-0.052c0.006,-0.012 0.012,-0.024 0.017,-0.037c0.008,-0.019 0.014,-0.038 0.02,-0.057c0.004,-0.012 0.009,-0.025 0.012,-0.038c0.006,-0.021 0.01,-0.043 0.014,-0.064c0.002,-0.011 0.004,-0.023 0.006,-0.034c0.004,-0.033 0.007,-0.067 0.007,-0.101l0,-5.484c0,-0.034 -0.003,-0.068 -0.007,-0.101Zm50.815,-8.536c-5.521,0 -9.999,4.477 -9.999,10c0,4.418 2.865,8.166 6.839,9.489c0.5,0.091 0.682,-0.217 0.682,-0.482c0,-0.238 -0.008,-0.867 -0.013,-1.701c-2.782,0.604 -3.369,-1.341 -3.369,-1.341c-0.454,-1.155 -1.11,-1.462 -1.11,-1.462c-0.908,-0.621 0.069,-0.608 0.069,-0.608c1.003,0.07 1.531,1.03 1.531,1.03c0.892,1.528 2.341,1.087 2.911,0.831c0.091,-0.646 0.349,-1.087 0.635,-1.337c-2.221,-0.252 -4.555,-1.11 -4.555,-4.942c0,-1.092 0.389,-1.984 1.029,-2.683c-0.103,-0.253 -0.446,-1.27 0.098,-2.647c0,0 0.839,-0.269 2.75,1.025c0.797,-0.222 1.653,-0.332 2.503,-0.336c0.85,0.004 1.705,0.114 2.504,0.336c1.909,-1.294 2.747,-1.025 2.747,-1.025c0.546,1.377 0.203,2.394 0.1,2.647c0.641,0.699 1.028,1.591 1.028,2.683c0,3.842 -2.339,4.687 -4.566,4.935c0.359,0.308 0.679,0.919 0.679,1.851c0,1.337 -0.013,2.416 -0.013,2.744c0,0.267 0.181,0.578 0.688,0.481c3.97,-1.325 6.833,-5.071 6.833,-9.488c0,-5.523 -4.478,-10 -10.001,-10Zm-60.582,18.16l-6.06,-4.04l2.707,-1.81l3.353,2.242l0,3.608Zm1.547,0l0,-3.608l3.354,-2.242l2.707,1.81l-6.061,4.04Zm-0.773,-4.951l-2.736,-1.83l2.736,-1.83l2.736,1.83l-2.736,1.83Zm-7.453,-3.124l1.935,1.294l-1.935,1.294l0,-2.588Zm14.906,2.588l-1.935,-1.294l1.935,-1.294l0,2.588Zm-6.68,-8.075l6.061,4.04l-2.707,1.811l-3.354,-2.243l0,-3.608Zm-1.547,0l0,3.608l-3.353,2.243l-2.707,-1.811l6.06,-4.04Zm-44.226,-20.705l4,0l0,2l-4,0c-1.104,0 -2,-0.895 -2,-2l0,-4l2,0l0,4Zm14,2l-4,0l0,-2l4,0l0,-4l2,0l0,4c0,1.105 -0.895,2 -2,2Zm-61.262,0l-20,0l0,-18l2,0l0,16l2,0l0,-9l4,0l0,9l2,0l0,-13l4,0l0,13l2,0l0,-5l4,0l0,7Zm124.071,-1.815l-4,0c-0.25,0 -0.456,-0.183 -0.494,-0.421l-0.375,-2.65c-0.609,-0.252 -1.174,-0.587 -1.69,-0.983l-2.489,1.003c-0.226,0.087 -0.488,-0.001 -0.612,-0.217l-2,-3.464c-0.125,-0.216 -0.07,-0.486 0.118,-0.639l2.112,-1.653c-0.042,-0.32 -0.07,-0.645 -0.07,-0.976c0,-0.331 0.028,-0.656 0.07,-0.976l-2.112,-1.654c-0.188,-0.152 -0.243,-0.422 -0.118,-0.638l2,-3.464c0.124,-0.216 0.386,-0.304 0.612,-0.217l2.488,1.003c0.516,-0.396 1.081,-0.731 1.691,-0.984l0.375,-2.649c0.038,-0.238 0.244,-0.421 0.494,-0.421l4,0c0.249,0 0.456,0.183 0.494,0.421l0.375,2.65c0.609,0.252 1.174,0.587 1.69,0.983l2.489,-1.003c0.226,-0.087 0.488,0.001 0.612,0.217l2,3.464c0.125,0.216 0.07,0.486 -0.118,0.638l-2.113,1.654c0.042,0.321 0.07,0.645 0.07,0.976c0,0.331 -0.028,0.655 -0.07,0.976l2.113,1.653c0.188,0.153 0.243,0.423 0.118,0.639l-2,3.464c-0.124,0.216 -0.386,0.304 -0.612,0.217l-2.49,-1.004c-0.516,0.397 -1.081,0.731 -1.689,0.984l-0.375,2.65c-0.038,0.238 -0.245,0.421 -0.494,0.421Zm-2,-6.5c-1.933,0 -3.5,-1.567 -3.5,-3.5c0,-1.933 1.567,-3.5 3.5,-3.5c1.933,0 3.5,1.567 3.5,3.5c0,1.933 -1.567,3.5 -3.5,3.5Zm-58.809,-3.685l-2,0l0,-4l-4,0l0,-2l4,0c1.105,0 2,0.896 2,2l0,4Zm-12,-4l-4,0l0,4l-2,0l0,-4c0,-1.104 0.896,-2 2,-2l4,0l0,2Zm-25.773,-22.559l-2,0l0,-4l-10,0c-1.104,0 -2,-0.895 -2,-2l0,-10l-4,0l0,-2l4,0l0,-4l2,0l0,16l16,0l0,2l-4,0l0,4Zm70.773,-1.47l-8,0c-1.381,0 -2.5,-1.119 -2.5,-2.5l0,-17c0,-1.381 1.119,-2.5 2.5,-2.5l8,0c1.381,0 2.5,1.119 2.5,2.5l0,17c0,1.381 -1.119,2.5 -2.5,2.5Zm-4,-1c-0.828,0 -1.5,-0.672 -1.5,-1.5c0,-0.828 0.672,-1.5 1.5,-1.5c0.828,0 1.5,0.672 1.5,1.5c0,0.828 -0.672,1.5 -1.5,1.5Zm59.803,-22.252c-5.526,0 -9.994,4.476 -9.994,9.999c0,5.524 4.468,10 9.994,10c5.527,0 10.006,-4.476 10.006,-10c0,-5.523 -4.479,-9.999 -10.006,-9.999Zm-55.303,18.252l0,-14l-9,0l0,14l9,0Zm57.219,-4.253l-3.821,0c0.427,1.432 1.077,2.764 1.909,3.964c0.834,-1.2 1.484,-2.532 1.912,-3.964Zm-5.884,0l-2.949,0c0.958,1.657 2.49,2.935 4.328,3.563c-0.6,-1.112 -1.056,-2.312 -1.379,-3.563Zm10.895,0l-2.949,0c-0.323,1.25 -0.779,2.448 -1.379,3.561c1.837,-0.631 3.369,-1.907 4.328,-3.561Zm-133.503,2.723l-2,0l0,-8l-8,0l0,-2l8,0c1.105,0 2,0.895 2,2l0,8Zm128.921,-4.723c0.095,-0.655 0.161,-1.318 0.161,-2c0,-0.681 -0.066,-1.344 -0.161,-1.999l-4.679,0c-0.095,0.655 -0.16,1.318 -0.16,1.999c0,0.682 0.065,1.345 0.16,2l4.679,0Zm5.398,0c0.166,-0.64 0.263,-1.307 0.263,-2c0,-0.692 -0.097,-1.359 -0.263,-1.999l-3.376,0c0.082,0.656 0.139,1.32 0.139,1.999c0,0.68 -0.057,1.344 -0.139,2l3.376,0Zm-12.099,0c-0.082,-0.657 -0.138,-1.32 -0.138,-2c0,-0.679 0.056,-1.343 0.138,-1.999l-3.377,0c-0.165,0.64 -0.261,1.307 -0.261,1.999c0,0.693 0.096,1.36 0.261,2l3.377,0Zm0.388,-5.999c0.323,-1.253 0.779,-2.451 1.379,-3.563c-1.838,0.628 -3.37,1.906 -4.328,3.563l2.949,0Zm10.895,0c-0.959,-1.655 -2.491,-2.931 -4.328,-3.561c0.6,1.113 1.056,2.311 1.379,3.561l2.949,0Zm-5.011,0c-0.428,-1.432 -1.078,-2.764 -1.912,-3.964c-0.832,1.2 -1.482,2.532 -1.909,3.964l3.821,0Zm-24.91,-30.349l0,4c0,3.866 -3.134,7 -7,7c-3.866,0 -7,-3.134 -7,-7l0,-4l14,0Zm-82.741,-9.929l15.864,0l-1.447,16.201l-6.489,1.799l-6.483,-1.8l-1.445,-16.2Zm-53.53,11c1.105,0 2,0.895 2,2c0,1.105 -0.895,2 -2,2c-1.105,0 -2,-0.895 -2,-2c0,-1.105 0.895,-2 2,-2Zm66.26,-5.701l0.178,-1.987l-9.952,0l0.536,6.008l6.886,0l-0.231,2.577l-2.215,0.598l-2.216,-0.597l-0.147,-1.655l-1.995,0l0.285,3.19l4.073,1.129l4.072,-1.129l0.545,-6.1l-7.24,0l-0.182,-2.034l7.603,0Zm-73.86,0.901c1.767,0 3.2,1.433 3.2,3.2c0,1.767 -1.433,3.2 -3.2,3.2c-1.767,0 -3.2,-1.433 -3.2,-3.2c0,-1.767 1.433,-3.2 3.2,-3.2Zm143.871,2.729l-14,0l0,-1c0,-2.319 1.141,-4.358 2.877,-5.631l-2.099,-2.099l0.824,-0.826l2.305,2.305c0.937,-0.464 1.978,-0.749 3.093,-0.749c1.115,0 2.156,0.285 3.093,0.749l2.304,-2.305l0.825,0.826l-2.099,2.099c1.736,1.273 2.877,3.312 2.877,5.631l0,1Zm-135.871,-9.929c2.651,0 4.8,2.149 4.8,4.8c0,2.651 -2.149,4.8 -4.8,4.8c-2.651,0 -4.8,-2.149 -4.8,-4.8c0,-2.651 2.149,-4.8 4.8,-4.8Zm131.871,7.929c-0.553,0 -1,-0.448 -1,-1c0,-0.552 0.447,-1 1,-1c0.553,0 1,0.448 1,1c0,0.552 -0.447,1 -1,1Zm-6,0c-0.553,0 -1,-0.448 -1,-1c0,-0.552 0.447,-1 1,-1c0.553,0 1,0.448 1,1c0,0.552 -0.447,1 -1,1Zm-18.809,-27.914l-5,0l0,-2l3,0l0,-12l-3,0l0,-2l5,0l0,16Zm-11,-14l-3,0l0,12l3,0l0,2l-5,0l0,-16l5,0l0,2Zm61.809,11.874l-3,0l2,-4l-3,0l0,-6l6,0l0,6l-2,4Zm8,0l-3,0l2,-4l-3,0l0,-6l6,0l0,6l-2,4Zm-39,-48.33l-2,0l0,5c0,1.104 -0.895,2 -2,2c1.105,0 2,0.895 2,2l0,5l2,0l0,2l-2,0c-1.072,-0.268 -2,-0.896 -2,-2l0,-4c0,-1.105 -0.895,-2 -2,-2l-1,0l0,-2l1,0c1.105,-0.001 2,-0.896 2,-2l0,-4c0,-1.105 0.895,-2 2,-2l2,0l0,2Zm6,16l-2,0l0,-2l2,0l0,-5c0,-1.105 0.895,-2 2,-2c-1.105,0 -2,-0.896 -2,-2l0,-5l-2,0l0,-2l2,0c1.105,0 2,0.895 2,2l0,4c0,1.104 0.895,1.999 2,2l1,0l0,2l-1,0c-1.105,0 -2,0.895 -2,2l0,4c0,1.104 -0.928,1.732 -2,2Zm21.57,-53.06l1.605,1.037c-1.248,1.888 -1.982,4.835 -1.984,7.965c0.003,3.13 0.738,6.076 1.986,7.963l-1.603,1.037c-1.512,-2.274 -2.38,-5.553 -2.383,-9c0.002,-3.447 0.869,-6.726 2.379,-9.002Zm11.238,0c1.511,2.274 2.379,5.551 2.383,8.998c-0.002,3.447 -0.869,6.726 -2.379,9.002l-1.606,-1.037c1.249,-1.888 1.983,-4.835 1.985,-7.965c-0.003,-3.13 -0.738,-6.076 -1.987,-7.963l1.604,-1.035Zm-64.017,13.601l4.6,-4.6l-4.6,-4.6l1.4,-1.4l6,6l-6,6l-1.4,-1.4Zm-5.2,0l-4.6,-4.6l4.6,-4.6l-1.4,-1.4l-6,6l6,6l1.4,-1.4Z" style="fill:#00cf68;"/></g><g id="Items-bg1" serif:id="Items bg"><path d="M1193.12,540.529c-1.511,-2.274 -2.379,-5.551 -2.383,-8.998c0.002,-3.447 0.869,-6.726 2.379,-9.002l1.606,1.037c-1.249,1.888 -1.983,4.835 -1.985,7.965c0.003,3.13 0.738,6.076 1.987,7.963l-1.604,1.035Zm11.238,0l-1.605,-1.037c1.248,-1.888 1.982,-4.835 1.984,-7.965c-0.003,-3.13 -0.738,-6.076 -1.986,-7.963l1.603,-1.037c1.512,2.274 2.38,5.553 2.383,9c-0.002,3.447 -0.869,6.726 -2.379,9.002Zm52.779,-13.601l-4.6,4.6l4.6,4.6l-1.4,1.4l-6,-6l6,-6l1.4,1.4Zm5.2,0l4.6,4.6l-4.6,4.6l1.4,1.4l6,-6l-6,-6l-1.4,1.4Zm-28.409,-39.459c1.072,0.268 2,0.896 2,2l0,4c0,1.105 0.895,2 2,2l1,0l0,2l-1,0c-1.105,0 -2,0.896 -2,2l0,4c0,1.105 -0.895,2 -2,2l-2,0l0,-2l2,0l0,-5c0,-1.104 0.895,-2 2,-2c-1.105,0 -2,-0.895 -2,-2l0,-5l-2,0l0,-2l2,0Zm-6,2l-2,0l0,5c0,1.105 -0.895,2 -2,2c1.105,0 2,0.896 2,2l0,5l2,0l0,2l-2,0c-1.105,0 -2,-0.895 -2,-2l0,-4c0,-1.104 -0.895,-2 -2,-2l-1,0l0,-2l1,0c1.105,0 2,-0.895 2,-2l0,-4c0,-1.104 0.928,-1.732 2,-2l2,0l0,2Zm28.809,-36.456l0,2l-3,0l0,12l3,0l0,2l-5,0l0,-16l5,0Zm11,0l0,16l-5,0l0,-2l3,0l0,-12l-3,0l0,-2l5,0Zm-62.809,2.126l0,6l-2,4l-3,0l2,-4l-3,0l0,-6l6,0Zm-8,0l0,6l-2,4l-3,0l2,-4l-3,0l0,-6l6,0Zm161.871,-22.111c-2.651,0 -4.8,-2.149 -4.8,-4.8c0,-2.651 2.149,-4.8 4.8,-4.8c2.651,0 4.8,2.149 4.8,4.8c0,2.651 -2.149,4.8 -4.8,4.8Zm-121.871,-11.373l0,4c0,3.866 -3.134,7 -7,7c-3.866,0 -7,-3.134 -7,-7l0,-4l14,0Zm52.877,-7.627l15.864,0l-1.447,16.201l-6.489,1.799l-6.483,-1.8l-1.445,-16.2Zm12.908,3.312l-9.952,0l0.536,6.008l6.886,0l-0.231,2.577l-2.215,0.598l-2.216,-0.597l-0.147,-1.655l-1.995,0l0.285,3.19l4.073,1.129l4.072,-1.129l0.546,-6.1l-7.241,0l-0.182,-2.034l7.603,0l0.178,-1.987Zm64.086,8.488c-1.767,0 -3.2,-1.433 -3.2,-3.2c0,-1.767 1.433,-3.2 3.2,-3.2c1.767,0 3.2,1.433 3.2,3.2c0,1.767 -1.433,3.2 -3.2,3.2Zm-7.6,-4.8c-1.105,0 -2,-0.895 -2,-2c0,-1.105 0.895,-2 2,-2c1.105,0 2,0.895 2,2c0,1.105 -0.895,2 -2,2Zm-125.148,-7.004l2.099,-2.099l-0.825,-0.826l-2.304,2.305c-0.937,-0.464 -1.978,-0.749 -3.093,-0.749c-1.115,0 -2.156,0.285 -3.093,0.749l-2.305,-2.305l-0.824,0.826l2.099,2.099c-1.736,1.273 -2.877,3.312 -2.877,5.631l0,1l14,0l0,-1c0,-2.319 -1.141,-4.358 -2.877,-5.631Zm-1.123,4.631c-0.553,0 -1,-0.448 -1,-1c0,-0.552 0.447,-1 1,-1c0.553,0 1,0.448 1,1c0,0.552 -0.447,1 -1,1Zm-6,0c-0.553,0 -1,-0.448 -1,-1c0,-0.552 0.447,-1 1,-1c0.553,0 1,0.448 1,1c0,0.552 -0.447,1 -1,1Zm-26.994,-20.905c5.526,0 9.994,-4.477 9.994,-10c0,-5.523 -4.468,-10 -9.994,-10c-5.527,0 -10.006,4.477 -10.006,10c0,5.523 4.479,10 10.006,10Zm63.803,-23.252c1.381,0 2.5,1.119 2.5,2.5l0,17c0,1.381 -1.119,2.5 -2.5,2.5l-8,0c-1.381,0 -2.5,-1.119 -2.5,-2.5l0,-17c0,-1.381 1.119,-2.5 2.5,-2.5l8,0Zm-63.807,21.216c-0.834,-1.2 -1.484,-2.533 -1.912,-3.964l3.821,0c-0.427,1.431 -1.077,2.764 -1.909,3.964Zm59.807,-0.216c-0.828,0 -1.5,-0.672 -1.5,-1.5c0,-0.828 0.672,-1.5 1.5,-1.5c0.828,0 1.5,0.672 1.5,1.5c0,0.828 -0.672,1.5 -1.5,1.5Zm-55.835,-3.748l2.949,0c-0.958,1.656 -2.49,2.934 -4.328,3.563c0.6,-1.113 1.056,-2.311 1.379,-3.563Zm-10.895,0l2.949,0c0.323,1.25 0.779,2.448 1.379,3.561c-1.837,-0.631 -3.369,-1.907 -4.328,-3.561Zm135.503,-18.722l0,4l10,0c1.104,0 2,0.895 2,2l0,10l4,0l0,2l-4,0l0,4l-2,0l0,-16l-16,0l0,-2l4,0l0,-4l2,0Zm-64.273,18.47l0,-14l-9,0l0,14l9,0Zm64.273,-10.47l0,8l8,0l0,2l-8,0c-1.105,0 -2,-0.895 -2,-2l0,-8l2,0Zm-120.843,8.722c0.165,-0.64 0.261,-1.308 0.261,-2c0,-0.692 -0.096,-1.36 -0.261,-2l-3.377,0c0.082,0.657 0.138,1.321 0.138,2c0,0.679 -0.056,1.343 -0.138,2l3.377,0Zm-5.399,0c0.095,-0.655 0.16,-1.319 0.16,-2c0,-0.681 -0.065,-1.345 -0.16,-2l-4.679,0c-0.095,0.655 -0.161,1.319 -0.161,2c0,0.681 0.066,1.345 0.161,2l4.679,0Zm-6.701,0c-0.082,-0.657 -0.139,-1.321 -0.139,-2c0,-0.679 0.057,-1.343 0.139,-2l-3.376,0c-0.166,0.64 -0.263,1.308 -0.263,2c0,0.692 0.097,1.36 0.263,2l3.376,0Zm11.284,-6c-0.958,-1.656 -2.49,-2.934 -4.328,-3.563c0.6,1.113 1.056,2.312 1.379,3.563l2.949,0Zm-5.012,0c-0.427,-1.431 -1.077,-2.764 -1.909,-3.964c-0.834,1.2 -1.484,2.533 -1.912,3.964l3.821,0Zm-5.883,0c0.323,-1.25 0.779,-2.448 1.379,-3.561c-1.837,0.631 -3.369,1.907 -4.328,3.561l2.949,0Zm35.972,-47.466c0.25,0 0.456,0.183 0.494,0.421l0.375,2.65c0.609,0.252 1.174,0.587 1.69,0.983l2.489,-1.003c0.226,-0.087 0.488,0.001 0.612,0.217l2,3.464c0.125,0.216 0.07,0.486 -0.118,0.639l-2.112,1.653c0.042,0.32 0.07,0.645 0.07,0.976c0,0.331 -0.028,0.656 -0.07,0.976l2.112,1.654c0.188,0.152 0.243,0.422 0.118,0.638l-2,3.464c-0.124,0.216 -0.386,0.304 -0.612,0.217l-2.488,-1.003c-0.516,0.396 -1.081,0.731 -1.691,0.984l-0.375,2.649c-0.038,0.238 -0.244,0.421 -0.494,0.421l-4,0c-0.249,0 -0.456,-0.183 -0.494,-0.421l-0.375,-2.65c-0.609,-0.252 -1.174,-0.587 -1.69,-0.983l-2.489,1.003c-0.226,0.087 -0.488,-0.001 -0.612,-0.217l-2,-3.464c-0.125,-0.216 -0.07,-0.486 0.118,-0.638l2.113,-1.654c-0.042,-0.321 -0.07,-0.645 -0.07,-0.976c0,-0.331 0.028,-0.655 0.07,-0.976l-2.113,-1.653c-0.188,-0.153 -0.243,-0.423 -0.118,-0.639l2,-3.464c0.124,-0.216 0.386,-0.304 0.612,-0.217l2.49,1.004c0.516,-0.397 1.081,-0.731 1.689,-0.984l0.375,-2.65c0.038,-0.238 0.245,-0.421 0.494,-0.421l4,0Zm58.809,10.185l0,4l4,0l0,2l-4,0c-1.105,0 -2,-0.896 -2,-2l0,-4l2,0Zm16,0l0,4c0,1.104 -0.896,2 -2,2l-4,0l0,-2l4,0l0,-4l2,0Zm65.262,6l-2,0l0,-16l-2,0l0,9l-4,0l0,-9l-2,0l0,13l-4,0l0,-13l-2,0l0,5l-4,0l0,-7l20,0l0,18Zm-142.071,-9.685c1.933,0 3.5,1.567 3.5,3.5c0,1.933 -1.567,3.5 -3.5,3.5c-1.933,0 -3.5,-1.567 -3.5,-3.5c0,-1.933 1.567,-3.5 3.5,-3.5Zm74.809,-8.315c1.104,0 2,0.895 2,2l0,4l-2,0l0,-4l-4,0l0,-2l4,0Zm-10,0l0,2l-4,0l0,4l-2,0l0,-4c0,-1.105 0.895,-2 2,-2l4,0Zm-94.81,-33.613c-5.521,0 -9.999,4.477 -9.999,10.001c0,4.417 2.865,8.166 6.839,9.488c0.5,0.092 0.682,-0.217 0.682,-0.482c0,-0.237 -0.008,-0.866 -0.013,-1.701c-2.782,0.605 -3.369,-1.34 -3.369,-1.34c-0.454,-1.155 -1.11,-1.463 -1.11,-1.463c-0.908,-0.621 0.069,-0.608 0.069,-0.608c1.003,0.071 1.531,1.031 1.531,1.031c0.892,1.528 2.341,1.087 2.911,0.831c0.091,-0.647 0.349,-1.087 0.635,-1.337c-2.221,-0.253 -4.555,-1.111 -4.555,-4.943c0,-1.091 0.389,-1.984 1.029,-2.683c-0.103,-0.253 -0.446,-1.27 0.098,-2.647c0,0 0.839,-0.268 2.75,1.026c0.797,-0.222 1.653,-0.333 2.503,-0.337c0.85,0.004 1.705,0.115 2.504,0.337c1.909,-1.294 2.747,-1.026 2.747,-1.026c0.546,1.377 0.202,2.394 0.1,2.647c0.641,0.699 1.028,1.592 1.028,2.683c0,3.842 -2.339,4.687 -4.566,4.935c0.359,0.309 0.678,0.919 0.678,1.852c0,1.337 -0.012,2.415 -0.012,2.743c0,0.267 0.181,0.579 0.688,0.481c3.97,-1.325 6.833,-5.071 6.833,-9.487c0,-5.524 -4.478,-10.001 -10.001,-10.001Zm50.817,10.97c0.002,0.011 0.004,0.022 0.006,0.034c0.004,0.021 0.008,0.043 0.014,0.064c0.003,0.013 0.008,0.025 0.012,0.038c0.006,0.019 0.012,0.038 0.02,0.056c0.005,0.013 0.011,0.026 0.017,0.038c0.008,0.018 0.017,0.035 0.026,0.051c0.007,0.012 0.015,0.024 0.022,0.036c0.011,0.016 0.021,0.032 0.033,0.047c0.009,0.011 0.018,0.023 0.027,0.034c0.012,0.014 0.025,0.028 0.038,0.041c0.01,0.011 0.02,0.021 0.031,0.031c0.014,0.012 0.029,0.025 0.044,0.037c0.011,0.009 0.023,0.018 0.035,0.026c0.004,0.003 0.008,0.007 0.013,0.01l8.226,5.484c0.26,0.173 0.598,0.173 0.858,0l8.227,-5.484c0.004,-0.003 0.008,-0.007 0.012,-0.01c0.012,-0.008 0.024,-0.017 0.035,-0.026c0.015,-0.012 0.03,-0.025 0.044,-0.037c0.011,-0.01 0.021,-0.02 0.031,-0.031c0.013,-0.013 0.026,-0.027 0.038,-0.041c0.01,-0.011 0.019,-0.023 0.027,-0.034c0.011,-0.015 0.022,-0.031 0.033,-0.047c0.007,-0.012 0.015,-0.024 0.022,-0.036c0.009,-0.016 0.018,-0.033 0.026,-0.051c0.006,-0.012 0.012,-0.025 0.017,-0.038c0.008,-0.018 0.014,-0.037 0.02,-0.056c0.004,-0.013 0.009,-0.025 0.012,-0.038c0.006,-0.021 0.01,-0.043 0.014,-0.064c0.002,-0.012 0.005,-0.023 0.006,-0.034c0.004,-0.033 0.007,-0.067 0.007,-0.101l0,-5.484c0,-0.034 -0.003,-0.068 -0.007,-0.102c-0.001,-0.011 -0.004,-0.022 -0.006,-0.033c-0.004,-0.021 -0.008,-0.043 -0.014,-0.065c-0.003,-0.012 -0.008,-0.025 -0.012,-0.037c-0.006,-0.019 -0.012,-0.038 -0.02,-0.057c-0.005,-0.013 -0.011,-0.025 -0.017,-0.037c-0.008,-0.018 -0.017,-0.035 -0.026,-0.052c-0.007,-0.012 -0.015,-0.023 -0.022,-0.035c-0.011,-0.016 -0.022,-0.032 -0.033,-0.047c-0.008,-0.012 -0.017,-0.023 -0.027,-0.034c-0.012,-0.014 -0.025,-0.028 -0.038,-0.041c-0.01,-0.011 -0.02,-0.021 -0.031,-0.031c-0.014,-0.013 -0.029,-0.025 -0.044,-0.037c-0.011,-0.009 -0.023,-0.018 -0.035,-0.026c-0.004,-0.003 -0.008,-0.007 -0.012,-0.01l-8.227,-5.484c-0.13,-0.087 -0.279,-0.13 -0.429,-0.13c-0.149,0 -0.299,0.043 -0.429,0.13l-8.226,5.484c-0.005,0.003 -0.009,0.007 -0.013,0.01c-0.012,0.008 -0.024,0.017 -0.035,0.026c-0.015,0.012 -0.03,0.024 -0.044,0.037c-0.011,0.01 -0.021,0.02 -0.031,0.031c-0.013,0.013 -0.026,0.027 -0.038,0.041c-0.009,0.011 -0.018,0.022 -0.027,0.034c-0.012,0.015 -0.022,0.031 -0.033,0.047c-0.007,0.012 -0.015,0.023 -0.022,0.035c-0.009,0.017 -0.018,0.034 -0.026,0.052c-0.006,0.012 -0.012,0.024 -0.017,0.037c-0.008,0.019 -0.014,0.038 -0.02,0.057c-0.004,0.012 -0.009,0.025 -0.012,0.037c-0.006,0.022 -0.01,0.044 -0.014,0.065c-0.002,0.011 -0.004,0.022 -0.006,0.033c-0.004,0.034 -0.007,0.068 -0.007,0.102l0,5.484c0,0.034 0.003,0.068 0.007,0.101Zm8.22,3.938l-6.061,-4.04l2.707,-1.811l3.354,2.243l0,3.608Zm1.547,0l0,-3.608l3.353,-2.243l2.707,1.811l-6.06,4.04Zm-0.774,-8.611l2.736,1.83l-2.736,1.83l-2.736,-1.83l2.736,-1.83Zm7.453,3.124l-1.935,-1.294l1.935,-1.294l0,2.588Zm-14.906,-2.588l1.935,1.294l-1.935,1.294l0,-2.588Zm6.68,-5.487l0,3.607l-3.354,2.243l-2.707,-1.81l6.061,-4.04Zm1.547,0l6.06,4.04l-2.707,1.81l-3.353,-2.243l0,-3.607Zm-39.583,-22.733l14,0l0,2l-14,0c-1.1,0 -2,-0.9 -2,-2l0,-14l2,0l0,14Zm18,-2l-14,0c-1.11,0 -2,-0.9 -2,-2l0,-14c0,-1.1 0.89,-2 2,-2l12,0l4,4l0,12c0,1.1 -0.9,2 -2,2Zm-7,-2c1.66,0 3,-1.34 3,-3c0,-1.66 -1.34,-3 -3,-3c-1.66,0 -3,1.34 -3,3c0,1.66 1.34,3 3,3Zm3,-14l-10,0l0,4l10,0l0,-4Zm-41.001,-18.001l1.255,-2.744l2.743,-1.255l-2.743,-1.255l-1.255,-2.744l-1.255,2.744l-2.744,1.255l2.744,1.255l1.255,2.744Zm61.309,-7c-1.66,0 -3,1.34 -3,3c0,1.31 -1.16,2 -2,2c0.92,1.22 2.49,2 4,2c2.21,0 4,-1.79 4,-4c0,-1.66 -1.34,-3 -3,-3Zm-51.309,4.002l2.505,-5.494l5.492,-2.51l-5.492,-2.504l-2.505,-5.493l-2.505,5.493l-5.499,2.504l5.499,2.51l2.505,5.494Zm65.019,-13.372l-1.34,-1.34c-0.39,-0.39 -1.02,-0.39 -1.41,0l-8.96,8.96l2.75,2.75l8.96,-8.96c0.39,-0.39 0.39,-1.02 0,-1.41Zm-75.019,2.371l1.255,-2.744l2.743,-1.255l-2.743,-1.255l-1.255,-2.744l-1.255,2.744l-2.744,1.255l2.744,1.255l1.255,2.744Z" style="fill:#00a0fa;"/></g></g></g></g></svg>