<?xml version="1.0" encoding="UTF-8" standalone="no"?><!DOCTYPE svg PUBLIC "-//W3C//DTD SVG 1.1//EN" "http://www.w3.org/Graphics/SVG/1.1/DTD/svg11.dtd"><svg width="100%" height="100%" viewBox="0 0 1366 768" version="1.1" xmlns="http://www.w3.org/2000/svg" xmlns:xlink="http://www.w3.org/1999/xlink" xml:space="preserve" xmlns:serif="http://www.serif.com/" style="fill-rule:evenodd;clip-rule:evenodd;stroke-linejoin:round;stroke-miterlimit:1.41421;"><rect id="Artboard2" x="0" y="0" width="1366" height="768" style="fill:none;"/><clipPath id="_clip1"><rect id="Artboard21" serif:id="Artboard2" x="0" y="0" width="1366" height="768"/></clipPath><g clip-path="url(#_clip1)"><g><g id="Items-bg" serif:id="Items bg"><g id="Amnbiny"><path id="chart-bubble" d="M-4.8,339.2c1.767,0 3.2,1.433 3.2,3.2c0,1.767 -1.433,3.2 -3.2,3.2c-1.767,0 -3.2,-1.433 -3.2,-3.2c0,-1.767 1.433,-3.2 3.2,-3.2Zm7.6,4.8c1.105,0 2,0.895 2,2c0,1.105 -0.895,2 -2,2c-1.105,0 -2,-0.895 -2,-2c0,-1.105 0.895,-2 2,-2Zm0.4,-12c2.651,0 4.8,2.149 4.8,4.8c0,2.651 -2.149,4.8 -4.8,4.8c-2.651,0 -4.8,-2.149 -4.8,-4.8c0,-2.651 2.149,-4.8 4.8,-4.8Z" style="fill:#fff;fill-rule:nonzero;"/><path id="chart-bar" d="M10,430.559l-20,0l0,-18l2,0l0,16l2,0l0,-9l4,0l0,9l2,0l0,-13l4,0l0,13l2,0l0,-5l4,0l0,7Z" style="fill:#fff;fill-rule:nonzero;"/><path id="crop" d="M23.489,386l0,-16l-2,0l0,4l-4,0l0,2l4,0l0,10c0,1.105 0.896,2 2,2l10,0l0,4l2,0l0,-4l4,0l0,-2m-6,-2l2,0l0,-8c0,-1.105 -0.895,-2 -2,-2l-8,0l0,2l8,0l0,8Z" style="fill:#fff;fill-rule:nonzero;"/><path id="crop-free" d="M71.262,412.559l-4,0l0,2l4,0l0,4l2,0l0,-4c0,-1.105 -0.895,-2 -2,-2Zm0,16l-4,0l0,2l4,0c1.105,0 2,-0.895 2,-2l0,-4l-2,0m-14,0l-2,0l0,4c0,1.105 0.896,2 2,2l4,0l0,-2l-4,0m-2,-14l0,4l2,0l0,-4l4,0l0,-2l-4,0c-1.104,0 -2,0.895 -2,2Z" style="fill:#fff;fill-rule:nonzero;"/><path id="language-html5" d="M64.262,347.562l4.072,-1.129l0.545,-6.1l-7.24,0l-0.182,-2.034l7.603,0l0.178,-1.987l-9.952,0l0.536,6.008l6.886,0l-0.231,2.577l-2.215,0.598l-2.216,-0.597l-0.147,-1.655l-1.995,0l0.285,3.19l4.073,1.129Zm-7.932,-14.562l15.864,0l-1.447,16.201l-6.489,1.799l-6.483,-1.8l-1.445,-16.2Z" style="fill:#fff;fill-rule:nonzero;"/></g><g><path id="github" d="M162.07,444.666c-5.521,0 -9.999,4.477 -9.999,10c0,4.418 2.865,8.166 6.839,9.489c0.5,0.091 0.682,-0.217 0.682,-0.482c0,-0.238 -0.008,-0.867 -0.013,-1.701c-2.782,0.604 -3.369,-1.341 -3.369,-1.341c-0.454,-1.155 -1.11,-1.462 -1.11,-1.462c-0.908,-0.621 0.069,-0.608 0.069,-0.608c1.003,0.07 1.531,1.03 1.531,1.03c0.892,1.528 2.341,1.087 2.911,0.831c0.091,-0.646 0.349,-1.087 0.635,-1.337c-2.221,-0.252 -4.555,-1.11 -4.555,-4.942c0,-1.092 0.389,-1.984 1.029,-2.683c-0.103,-0.253 -0.446,-1.27 0.098,-2.647c0,0 0.839,-0.269 2.75,1.025c0.797,-0.222 1.653,-0.332 2.503,-0.336c0.85,0.004 1.705,0.114 2.504,0.336c1.909,-1.294 2.747,-1.025 2.747,-1.025c0.546,1.377 0.203,2.394 0.1,2.647c0.641,0.699 1.028,1.591 1.028,2.683c0,3.842 -2.339,4.687 -4.566,4.935c0.359,0.308 0.679,0.919 0.679,1.851c0,1.337 -0.013,2.416 -0.013,2.744c0,0.267 0.181,0.578 0.688,0.481c3.97,-1.325 6.833,-5.071 6.833,-9.488c0,-5.523 -4.478,-10 -10.001,-10Z" style="fill:#fff;"/><path id="creation" d="M168.072,521.56l-1.255,2.744l-2.743,1.255l2.743,1.255l1.255,2.744l1.255,-2.744l2.744,-1.255l-2.744,-1.255m-11.255,0.254l-2.505,5.494l-5.492,2.51l5.492,2.504l2.505,5.493l2.505,-5.493l5.499,-2.504l-5.499,-2.51m7.495,5.507l-1.255,2.744l-2.743,1.255l2.743,1.255l1.255,2.744l1.255,-2.744l2.744,-1.255l-2.744,-1.255" style="fill:#fff;fill-rule:nonzero;"/><path id="code-parentheses" d="M168.879,224.499c1.511,2.274 2.379,5.551 2.383,8.998c-0.002,3.447 -0.869,6.726 -2.379,9.002l-1.606,-1.037c1.249,-1.888 1.983,-4.835 1.985,-7.965c-0.003,-3.13 -0.738,-6.076 -1.987,-7.963l1.604,-1.035Zm-11.238,0l1.605,1.037c-1.248,1.888 -1.982,4.835 -1.984,7.965c0.003,3.13 0.738,6.076 1.986,7.963l-1.603,1.037c-1.512,-2.274 -2.38,-5.553 -2.383,-9c0.002,-3.447 0.869,-6.726 2.379,-9.002Z" style="fill:#fff;fill-rule:nonzero;"/><path id="web" d="M166.432,379.277c0.082,-0.656 0.139,-1.32 0.139,-2c0,-0.679 -0.057,-1.343 -0.139,-1.999l3.376,0c0.166,0.64 0.263,1.307 0.263,1.999c0,0.693 -0.097,1.36 -0.263,2m-5.144,5.561c0.6,-1.113 1.056,-2.311 1.379,-3.561l2.949,0c-0.959,1.654 -2.491,2.93 -4.328,3.561Zm-0.254,-5.561l-4.679,0c-0.095,-0.655 -0.16,-1.318 -0.16,-2c0,-0.681 0.065,-1.344 0.16,-1.999l4.679,0c0.095,0.655 0.161,1.318 0.161,1.999c0,0.682 -0.066,1.345 -0.161,2Zm-2.341,5.964c-0.832,-1.2 -1.482,-2.532 -1.909,-3.964l3.821,0c-0.428,1.432 -1.078,2.764 -1.912,3.964Zm-3.972,-11.963l-2.949,0c0.958,-1.657 2.49,-2.935 4.328,-3.563c-0.6,1.112 -1.056,2.31 -1.379,3.563Zm-2.949,7.999l2.949,0c0.323,1.251 0.779,2.451 1.379,3.563c-1.838,-0.628 -3.37,-1.906 -4.328,-3.563Zm-0.816,-2c-0.165,-0.64 -0.261,-1.307 -0.261,-2c0,-0.692 0.096,-1.359 0.261,-1.999l3.377,0c-0.082,0.656 -0.138,1.32 -0.138,1.999c0,0.68 0.056,1.344 0.138,2m4.36,-9.963c0.834,1.2 1.484,2.532 1.912,3.964l-3.821,0c0.427,-1.432 1.077,-2.764 1.909,-3.964Zm6.923,3.964l-2.949,0c-0.323,-1.25 -0.779,-2.448 -1.379,-3.561c1.837,0.631 3.369,1.907 4.328,3.561Zm-6.927,-6c-5.526,0 -9.994,4.476 -9.994,9.999c0,5.524 4.468,10 9.994,10c5.527,0 10.006,-4.476 10.006,-10c0,-5.523 -4.479,-9.999 -10.006,-9.999Z" style="fill:#fff;fill-rule:nonzero;"/><path id="format-quote" d="M166.071,309.889l3,0l2,-4l0,-6l-6,0l0,6l3,0m-10,4l3,0l2,-4l0,-6l-6,0l0,6l3,0l-2,4Z" style="fill:#fff;fill-rule:nonzero;"/></g><g><path id="brush" d="M111.471,523.193l-1.34,-1.34c-0.39,-0.39 -1.02,-0.39 -1.41,0l-8.96,8.96l2.75,2.75l8.96,-8.96c0.39,-0.39 0.39,-1.02 0,-1.41Zm-13.71,9.37c-1.66,0 -3,1.34 -3,3c0,1.31 -1.16,2 -2,2c0.92,1.22 2.49,2 4,2c2.21,0 4,-1.79 4,-4c0,-1.66 -1.34,-3 -3,-3Z" style="fill:#fff;fill-rule:nonzero;"/><path id="codepen" d="M109.715,457.339l-1.935,-1.294l1.935,-1.294m-6.68,8.075l0,-3.608l3.354,-2.242l2.707,1.81m-6.834,-0.911l-2.736,-1.83l2.736,-1.83l2.736,1.83m-3.51,6.781l-6.06,-4.04l2.707,-1.81l3.353,2.242m-6.679,-4.467l1.935,1.294l-1.935,1.294m6.679,-8.075l0,3.608l-3.353,2.243l-2.707,-1.811m7.607,-4.04l6.061,4.04l-2.707,1.811l-3.354,-2.243m8.22,0.33c-0.002,-0.011 -0.004,-0.022 -0.006,-0.034c-0.004,-0.021 -0.008,-0.043 -0.014,-0.064c-0.003,-0.013 -0.008,-0.026 -0.012,-0.038c-0.006,-0.019 -0.012,-0.038 -0.02,-0.056c-0.005,-0.013 -0.011,-0.026 -0.017,-0.038c-0.008,-0.018 -0.017,-0.035 -0.026,-0.051c-0.007,-0.013 -0.015,-0.024 -0.022,-0.036c-0.011,-0.016 -0.021,-0.032 -0.033,-0.047c-0.009,-0.011 -0.018,-0.023 -0.027,-0.034c-0.012,-0.014 -0.025,-0.028 -0.038,-0.041c-0.01,-0.011 -0.02,-0.021 -0.031,-0.031c-0.014,-0.012 -0.029,-0.025 -0.044,-0.037c-0.011,-0.009 -0.023,-0.018 -0.035,-0.026c-0.004,-0.003 -0.008,-0.007 -0.013,-0.01l-8.226,-5.484c-0.26,-0.173 -0.598,-0.173 -0.858,0l-8.227,5.484c-0.004,0.003 -0.008,0.007 -0.012,0.01c-0.012,0.008 -0.024,0.017 -0.035,0.026c-0.015,0.012 -0.03,0.025 -0.044,0.037c-0.011,0.01 -0.021,0.02 -0.031,0.031c-0.013,0.013 -0.026,0.027 -0.038,0.041c-0.01,0.011 -0.019,0.023 -0.027,0.034c-0.011,0.015 -0.022,0.031 -0.033,0.047c-0.007,0.012 -0.015,0.023 -0.022,0.036c-0.009,0.016 -0.018,0.033 -0.026,0.051c-0.006,0.012 -0.012,0.025 -0.017,0.038c-0.008,0.018 -0.014,0.037 -0.02,0.056c-0.004,0.012 -0.009,0.025 -0.012,0.038c-0.006,0.021 -0.01,0.043 -0.014,0.064c-0.002,0.012 -0.005,0.023 -0.006,0.034c-0.004,0.033 -0.007,0.067 -0.007,0.101l0,5.484c0,0.034 0.003,0.068 0.007,0.101c0.001,0.011 0.004,0.023 0.006,0.034c0.004,0.021 0.008,0.043 0.014,0.064c0.003,0.013 0.008,0.026 0.012,0.038c0.006,0.019 0.012,0.038 0.02,0.057c0.005,0.013 0.011,0.025 0.017,0.037c0.008,0.018 0.017,0.035 0.026,0.052c0.007,0.012 0.015,0.023 0.022,0.035c0.011,0.016 0.022,0.032 0.033,0.047c0.008,0.012 0.017,0.023 0.027,0.034c0.012,0.014 0.025,0.028 0.038,0.041c0.01,0.011 0.02,0.021 0.031,0.031c0.014,0.012 0.029,0.025 0.044,0.037c0.011,0.009 0.023,0.018 0.035,0.026c0.004,0.003 0.008,0.007 0.012,0.009l8.227,5.485c0.13,0.087 0.279,0.13 0.429,0.13c0.149,0 0.299,-0.043 0.429,-0.13l8.226,-5.485c0.005,-0.002 0.009,-0.006 0.013,-0.009c0.012,-0.008 0.024,-0.017 0.035,-0.026c0.015,-0.012 0.03,-0.025 0.044,-0.037c0.011,-0.01 0.021,-0.02 0.031,-0.031c0.013,-0.013 0.026,-0.027 0.038,-0.041c0.009,-0.011 0.018,-0.022 0.027,-0.034c0.012,-0.015 0.022,-0.031 0.033,-0.047c0.007,-0.012 0.015,-0.023 0.022,-0.035c0.009,-0.017 0.018,-0.034 0.026,-0.052c0.006,-0.012 0.012,-0.024 0.017,-0.037c0.008,-0.019 0.014,-0.038 0.02,-0.057c0.004,-0.012 0.009,-0.025 0.012,-0.038c0.006,-0.021 0.01,-0.043 0.014,-0.064c0.002,-0.011 0.004,-0.023 0.006,-0.034c0.004,-0.033 0.007,-0.067 0.007,-0.101l0,-5.484c0,-0.034 -0.003,-0.068 -0.007,-0.101Z" style="fill:#fff;fill-rule:nonzero;"/><path id="cellphone-iphone" d="M106.762,385.53l-9,0l0,-14l9,0m-4.5,18c-0.828,0 -1.5,-0.672 -1.5,-1.5c0,-0.828 0.672,-1.5 1.5,-1.5c0.828,0 1.5,0.672 1.5,1.5c0,0.828 -0.672,1.5 -1.5,1.5Zm4,-21l-8,0c-1.381,0 -2.5,1.119 -2.5,2.5l0,17c0,1.381 1.119,2.5 2.5,2.5l8,0c1.381,0 2.5,-1.119 2.5,-2.5l0,-17c0,-1.381 -1.119,-2.5 -2.5,-2.5Z" style="fill:#fff;fill-rule:nonzero;"/><path id="code-brackets" d="M105.262,296.015l0,2l3,0l0,12l-3,0l0,2l5,0l0,-16m-16,0l0,16l5,0l0,-2l-3,0l0,-12l3,0l0,-2l-5,0Z" style="fill:#fff;fill-rule:nonzero;"/><path id="code-tags" d="M104.862,238.1l4.6,-4.6l-4.6,-4.6l1.4,-1.4l6,6l-6,6l-1.4,-1.4Zm-5.2,0l-4.6,-4.6l4.6,-4.6l-1.4,-1.4l-6,6l6,6l1.4,-1.4Z" style="fill:#fff;fill-rule:nonzero;"/></g><g><path id="settings" d="M132.071,422.244c-1.933,0 -3.5,-1.567 -3.5,-3.5c0,-1.933 1.567,-3.5 3.5,-3.5c1.933,0 3.5,1.567 3.5,3.5c0,1.933 -1.567,3.5 -3.5,3.5Zm7.429,-2.524c0.042,-0.321 0.07,-0.645 0.07,-0.976c0,-0.331 -0.028,-0.655 -0.07,-0.976l2.113,-1.654c0.188,-0.152 0.243,-0.422 0.118,-0.638l-2,-3.464c-0.124,-0.216 -0.386,-0.304 -0.612,-0.217l-2.489,1.003c-0.516,-0.396 -1.081,-0.731 -1.69,-0.983l-0.375,-2.65c-0.038,-0.238 -0.245,-0.421 -0.494,-0.421l-4,0c-0.25,0 -0.456,0.183 -0.494,0.421l-0.375,2.649c-0.61,0.253 -1.175,0.588 -1.691,0.984l-2.488,-1.003c-0.226,-0.087 -0.488,0.001 -0.612,0.217l-2,3.464c-0.125,0.216 -0.07,0.486 0.118,0.638l2.112,1.654c-0.042,0.32 -0.07,0.645 -0.07,0.976c0,0.331 0.028,0.656 0.07,0.976l-2.112,1.653c-0.188,0.153 -0.243,0.423 -0.118,0.639l2,3.464c0.124,0.216 0.386,0.304 0.612,0.217l2.489,-1.003c0.516,0.396 1.081,0.731 1.69,0.983l0.375,2.65c0.038,0.238 0.244,0.421 0.494,0.421l4,0c0.249,0 0.456,-0.183 0.494,-0.421l0.375,-2.65c0.608,-0.253 1.173,-0.587 1.689,-0.984l2.49,1.004c0.226,0.087 0.488,-0.001 0.612,-0.217l2,-3.464c0.125,-0.216 0.07,-0.486 -0.118,-0.639l-2.113,-1.653Z" style="fill:#fff;fill-rule:nonzero;"/><path id="content-save-all" d="M137.071,489.559l0,-4l-10,0l0,4l10,0Zm-3,10c1.66,0 3,-1.34 3,-3c0,-1.66 -1.34,-3 -3,-3c-1.66,0 -3,1.34 -3,3c0,1.66 1.34,3 3,3Zm5,-16l4,4l0,12c0,1.1 -0.9,2 -2,2l-14,0c-1.11,0 -2,-0.9 -2,-2l0,-14c0,-1.1 0.89,-2 2,-2l12,0Zm-18,6l2,0l0,14l14,0l0,2l-14,0c-1.1,0 -2,-0.9 -2,-2l0,-14Z" style="fill:#fff;fill-rule:nonzero;"/><path id="code-braces" d="M128.071,259.559c-1.105,0 -2,0.895 -2,2l0,4c0,1.104 -0.895,2 -2,2l-1,0l0,2l1,0c1.105,0 2,0.895 2,2l0,4c0,1.104 0.928,1.732 2,2l2,0l0,-2l-2,0l0,-5c0,-1.105 -0.895,-2 -2,-2c1.105,0 2,-0.896 2,-2l0,-5l2,0l0,-2m6,0c1.105,0 2,0.895 2,2l0,4c0,1.104 0.895,2 2,2l1,0l0,2l-1,0c-1.105,0 -2,0.895 -2,2l0,4c0,1.104 -0.928,1.732 -2,2l-2,0l0,-2l2,0l0,-5c0,-1.105 0.895,-2 2,-2c-1.105,0 -2,-0.896 -2,-2l0,-5l-2,0l0,-2l2,0Z" style="fill:#fff;fill-rule:nonzero;"/><path id="android-debug-bridge" d="M135.071,339.929c-0.553,0 -1,-0.448 -1,-1c0,-0.552 0.447,-1 1,-1c0.553,0 1,0.448 1,1c0,0.552 -0.447,1 -1,1Zm-6,0c-0.553,0 -1,-0.448 -1,-1c0,-0.552 0.447,-1 1,-1c0.553,0 1,0.448 1,1c0,0.552 -0.447,1 -1,1Zm7.123,-4.631l2.099,-2.099l-0.825,-0.826l-2.304,2.305c-0.937,-0.464 -1.978,-0.749 -3.093,-0.749c-1.115,0 -2.156,0.285 -3.093,0.749l-2.305,-2.305l-0.824,0.826l2.099,2.099c-1.736,1.273 -2.877,3.312 -2.877,5.631l0,1l14,0l0,-1c0,-2.319 -1.141,-4.358 -2.877,-5.631Zm-11.123,11.631c0,3.866 3.134,7 7,7c3.866,0 7,-3.134 7,-7l0,-4l-14,0l0,4Z" style="fill:#fff;fill-rule:nonzero;"/></g></g><g id="Items-bg1" serif:id="Items bg"><g id="Amnbiny1" serif:id="Amnbiny"><path id="chart-bubble1" serif:id="chart-bubble" d="M1366.8,425.828c-1.767,0 -3.2,-1.433 -3.2,-3.2c0,-1.767 1.433,-3.2 3.2,-3.2c1.767,0 3.2,1.433 3.2,3.2c0,1.767 -1.433,3.2 -3.2,3.2Zm-7.6,-4.8c-1.105,0 -2,-0.895 -2,-2c0,-1.105 0.895,-2 2,-2c1.105,0 2,0.895 2,2c0,1.105 -0.895,2 -2,2Zm-0.4,12c-2.651,0 -4.8,-2.149 -4.8,-4.8c0,-2.651 2.149,-4.8 4.8,-4.8c2.651,0 4.8,2.149 4.8,4.8c0,2.651 -2.149,4.8 -4.8,4.8Z" style="fill:#fff;fill-rule:nonzero;"/><path id="chart-bar1" serif:id="chart-bar" d="M1352,334.469l20,0l0,18l-2,0l0,-16l-2,0l0,9l-4,0l0,-9l-2,0l0,13l-4,0l0,-13l-2,0l0,5l-4,0l0,-7Z" style="fill:#fff;fill-rule:nonzero;"/><path id="crop1" serif:id="crop" d="M1338.51,379.028l0,16l2,0l0,-4l4,0l0,-2l-4,0l0,-10c0,-1.105 -0.896,-2 -2,-2l-10,0l0,-4l-2,0l0,4l-4,0l0,2m6,2l-2,0l0,8c0,1.105 0.895,2 2,2l8,0l0,-2l-8,0l0,-8Z" style="fill:#fff;fill-rule:nonzero;"/><path id="crop-free1" serif:id="crop-free" d="M1290.74,352.469l4,0l0,-2l-4,0l0,-4l-2,0l0,4c0,1.104 0.895,2 2,2Zm0,-16l4,0l0,-2l-4,0c-1.105,0 -2,0.895 -2,2l0,4l2,0m14,0l2,0l0,-4c0,-1.105 -0.896,-2 -2,-2l-4,0l0,2l4,0m2,14l0,-4l-2,0l0,4l-4,0l0,2l4,0c1.104,0 2,-0.896 2,-2Z" style="fill:#fff;fill-rule:nonzero;"/><path id="language-html51" serif:id="language-html5" d="M1297.74,428.59l4.072,-1.129l0.546,-6.1l-7.241,0l-0.182,-2.034l7.603,0l0.178,-1.987l-9.952,0l0.536,6.008l6.886,0l-0.231,2.577l-2.215,0.598l-2.216,-0.597l-0.147,-1.655l-1.995,0l0.285,3.19l4.073,1.129Zm-7.932,-14.562l15.864,0l-1.447,16.201l-6.489,1.799l-6.483,-1.8l-1.445,-16.2Z" style="fill:#fff;fill-rule:nonzero;"/></g><g><path id="github1" serif:id="github" d="M1199.93,300.856c-5.521,0 -9.999,4.477 -9.999,10.001c0,4.417 2.865,8.166 6.839,9.488c0.5,0.092 0.682,-0.217 0.682,-0.482c0,-0.237 -0.008,-0.866 -0.013,-1.701c-2.782,0.605 -3.369,-1.34 -3.369,-1.34c-0.454,-1.155 -1.11,-1.463 -1.11,-1.463c-0.908,-0.621 0.069,-0.608 0.069,-0.608c1.003,0.071 1.531,1.031 1.531,1.031c0.892,1.528 2.341,1.087 2.911,0.831c0.091,-0.647 0.349,-1.087 0.635,-1.337c-2.221,-0.253 -4.555,-1.111 -4.555,-4.943c0,-1.091 0.389,-1.984 1.029,-2.683c-0.103,-0.253 -0.446,-1.27 0.098,-2.647c0,0 0.839,-0.268 2.75,1.026c0.797,-0.222 1.653,-0.333 2.503,-0.337c0.85,0.004 1.705,0.115 2.504,0.337c1.909,-1.294 2.747,-1.026 2.747,-1.026c0.546,1.377 0.202,2.394 0.1,2.647c0.641,0.699 1.028,1.592 1.028,2.683c0,3.842 -2.339,4.687 -4.566,4.935c0.359,0.309 0.678,0.919 0.678,1.852c0,1.337 -0.012,2.415 -0.012,2.743c0,0.267 0.181,0.579 0.688,0.481c3.97,-1.325 6.833,-5.071 6.833,-9.487c0,-5.524 -4.478,-10.001 -10.001,-10.001Z" style="fill:#fff;"/><path id="creation1" serif:id="creation" d="M1193.93,243.468l1.255,-2.744l2.743,-1.255l-2.743,-1.255l-1.255,-2.744l-1.255,2.744l-2.744,1.255l2.744,1.255m11.255,-0.254l2.505,-5.494l5.492,-2.51l-5.492,-2.504l-2.505,-5.493l-2.505,5.493l-5.499,2.504l5.499,2.51m-7.495,-5.507l1.255,-2.744l2.743,-1.255l-2.743,-1.255l-1.255,-2.744l-1.255,2.744l-2.744,1.255l2.744,1.255" style="fill:#fff;fill-rule:nonzero;"/><path id="code-parentheses1" serif:id="code-parentheses" d="M1193.12,540.529c-1.511,-2.274 -2.379,-5.551 -2.383,-8.998c0.002,-3.447 0.869,-6.726 2.379,-9.002l1.606,1.037c-1.249,1.888 -1.983,4.835 -1.985,7.965c0.003,3.13 0.738,6.076 1.987,7.963l-1.604,1.035Zm11.238,0l-1.605,-1.037c1.248,-1.888 1.982,-4.835 1.984,-7.965c-0.003,-3.13 -0.738,-6.076 -1.986,-7.963l1.603,-1.037c1.512,2.274 2.38,5.553 2.383,9c-0.002,3.447 -0.869,6.726 -2.379,9.002Z" style="fill:#fff;fill-rule:nonzero;"/><path id="web1" serif:id="web" d="M1195.57,385.75c-0.082,0.657 -0.139,1.321 -0.139,2c0,0.679 0.057,1.343 0.139,2l-3.376,0c-0.166,-0.64 -0.263,-1.308 -0.263,-2c0,-0.692 0.097,-1.36 0.263,-2m5.144,-5.561c-0.6,1.113 -1.056,2.311 -1.379,3.561l-2.949,0c0.959,-1.654 2.491,-2.93 4.328,-3.561Zm0.254,5.561l4.679,0c0.095,0.655 0.16,1.319 0.16,2c0,0.681 -0.065,1.345 -0.16,2l-4.679,0c-0.095,-0.655 -0.161,-1.319 -0.161,-2c0,-0.681 0.066,-1.345 0.161,-2Zm2.341,-5.964c0.832,1.2 1.482,2.533 1.909,3.964l-3.821,0c0.428,-1.431 1.078,-2.764 1.912,-3.964Zm3.972,11.964l2.949,0c-0.958,1.656 -2.49,2.934 -4.328,3.563c0.6,-1.113 1.056,-2.311 1.379,-3.563Zm2.949,-8l-2.949,0c-0.323,-1.251 -0.779,-2.45 -1.379,-3.563c1.838,0.629 3.37,1.907 4.328,3.563Zm0.816,2c0.165,0.64 0.261,1.308 0.261,2c0,0.692 -0.096,1.36 -0.261,2l-3.377,0c0.082,-0.657 0.138,-1.321 0.138,-2c0,-0.679 -0.056,-1.343 -0.138,-2m-4.36,9.964c-0.834,-1.2 -1.484,-2.533 -1.912,-3.964l3.821,0c-0.427,1.431 -1.077,2.764 -1.909,3.964Zm-6.923,-3.964l2.949,0c0.323,1.25 0.779,2.448 1.379,3.561c-1.837,-0.631 -3.369,-1.907 -4.328,-3.561Zm6.927,6c5.526,0 9.994,-4.477 9.994,-10c0,-5.523 -4.468,-10 -9.994,-10c-5.527,0 -10.006,4.477 -10.006,10c0,5.523 4.479,10 10.006,10Z" style="fill:#fff;fill-rule:nonzero;"/><path id="format-quote1" serif:id="format-quote" d="M1199.93,465.139l3,0l2,-4l0,-6l-6,0l0,6l3,0m-10,4l3,0l2,-4l0,-6l-6,0l0,6l3,0l-2,4Z" style="fill:#fff;fill-rule:nonzero;"/></g><g><path id="brush1" serif:id="brush" d="M1268.95,227.098l-1.34,-1.34c-0.39,-0.39 -1.02,-0.39 -1.41,0l-8.96,8.96l2.75,2.75l8.96,-8.96c0.39,-0.39 0.39,-1.02 0,-1.41Zm-13.71,9.37c-1.66,0 -3,1.34 -3,3c0,1.31 -1.16,2 -2,2c0.92,1.22 2.49,2 4,2c2.21,0 4,-1.79 4,-4c0,-1.66 -1.34,-3 -3,-3Z" style="fill:#fff;fill-rule:nonzero;"/><path id="codepen1" serif:id="codepen" d="M1252.29,307.689l1.935,1.294l-1.935,1.294m6.68,-8.075l0,3.607l-3.354,2.243l-2.707,-1.81m6.834,0.911l2.736,1.83l-2.736,1.83l-2.736,-1.83m3.51,-6.781l6.06,4.04l-2.707,1.81l-3.353,-2.243m6.679,4.468l-1.935,-1.294l1.935,-1.294m-6.679,8.075l0,-3.608l3.353,-2.243l2.707,1.811m-7.607,4.04l-6.061,-4.04l2.707,-1.811l3.354,2.243m-8.22,-0.33c0.002,0.011 0.004,0.022 0.006,0.034c0.004,0.021 0.008,0.043 0.014,0.064c0.003,0.013 0.008,0.025 0.012,0.038c0.006,0.019 0.012,0.038 0.02,0.056c0.005,0.013 0.011,0.026 0.017,0.038c0.008,0.018 0.017,0.035 0.026,0.051c0.007,0.012 0.015,0.024 0.022,0.036c0.011,0.016 0.021,0.032 0.033,0.047c0.009,0.011 0.018,0.023 0.027,0.034c0.012,0.014 0.025,0.028 0.038,0.041c0.01,0.011 0.02,0.021 0.031,0.031c0.014,0.012 0.029,0.025 0.044,0.037c0.011,0.009 0.023,0.018 0.035,0.026c0.004,0.003 0.008,0.007 0.013,0.01l8.226,5.484c0.26,0.173 0.598,0.173 0.858,0l8.227,-5.484c0.004,-0.003 0.008,-0.007 0.012,-0.01c0.012,-0.008 0.024,-0.017 0.035,-0.026c0.015,-0.012 0.03,-0.025 0.044,-0.037c0.011,-0.01 0.021,-0.02 0.031,-0.031c0.013,-0.013 0.026,-0.027 0.038,-0.041c0.01,-0.011 0.019,-0.023 0.027,-0.034c0.011,-0.015 0.022,-0.031 0.033,-0.047c0.007,-0.012 0.015,-0.024 0.022,-0.036c0.009,-0.016 0.018,-0.033 0.026,-0.051c0.006,-0.012 0.012,-0.025 0.017,-0.038c0.008,-0.018 0.014,-0.037 0.02,-0.056c0.004,-0.013 0.009,-0.025 0.012,-0.038c0.006,-0.021 0.01,-0.043 0.014,-0.064c0.002,-0.012 0.005,-0.023 0.006,-0.034c0.004,-0.033 0.007,-0.067 0.007,-0.101l0,-5.484c0,-0.034 -0.003,-0.068 -0.007,-0.102c-0.001,-0.011 -0.004,-0.022 -0.006,-0.033c-0.004,-0.021 -0.008,-0.043 -0.014,-0.065c-0.003,-0.012 -0.008,-0.025 -0.012,-0.037c-0.006,-0.019 -0.012,-0.038 -0.02,-0.057c-0.005,-0.013 -0.011,-0.025 -0.017,-0.037c-0.008,-0.018 -0.017,-0.035 -0.026,-0.052c-0.007,-0.012 -0.015,-0.023 -0.022,-0.035c-0.011,-0.016 -0.022,-0.032 -0.033,-0.047c-0.008,-0.012 -0.017,-0.023 -0.027,-0.034c-0.012,-0.014 -0.025,-0.028 -0.038,-0.041c-0.01,-0.011 -0.02,-0.021 -0.031,-0.031c-0.014,-0.013 -0.029,-0.025 -0.044,-0.037c-0.011,-0.009 -0.023,-0.018 -0.035,-0.026c-0.004,-0.003 -0.008,-0.007 -0.012,-0.01l-8.227,-5.484c-0.13,-0.087 -0.279,-0.13 -0.429,-0.13c-0.149,0 -0.299,0.043 -0.429,0.13l-8.226,5.484c-0.005,0.003 -0.009,0.007 -0.013,0.01c-0.012,0.008 -0.024,0.017 -0.035,0.026c-0.015,0.012 -0.03,0.024 -0.044,0.037c-0.011,0.01 -0.021,0.02 -0.031,0.031c-0.013,0.013 -0.026,0.027 -0.038,0.041c-0.009,0.011 -0.018,0.022 -0.027,0.034c-0.012,0.015 -0.022,0.031 -0.033,0.047c-0.007,0.012 -0.015,0.023 -0.022,0.035c-0.009,0.017 -0.018,0.034 -0.026,0.052c-0.006,0.012 -0.012,0.024 -0.017,0.037c-0.008,0.019 -0.014,0.038 -0.02,0.057c-0.004,0.012 -0.009,0.025 -0.012,0.037c-0.006,0.022 -0.01,0.044 -0.014,0.065c-0.002,0.011 -0.004,0.022 -0.006,0.033c-0.004,0.034 -0.007,0.068 -0.007,0.102l0,5.484c0,0.034 0.003,0.068 0.007,0.101Z" style="fill:#fff;fill-rule:nonzero;"/><path id="cellphone-iphone1" serif:id="cellphone-iphone" d="M1264.24,391.498l-9,0l0,-14l9,0m-4.5,18c-0.828,0 -1.5,-0.672 -1.5,-1.5c0,-0.828 0.672,-1.5 1.5,-1.5c0.828,0 1.5,0.672 1.5,1.5c0,0.828 -0.672,1.5 -1.5,1.5Zm4,-21l-8,0c-1.381,0 -2.5,1.119 -2.5,2.5l0,17c0,1.381 1.119,2.5 2.5,2.5l8,0c1.381,0 2.5,-1.119 2.5,-2.5l0,-17c0,-1.381 -1.119,-2.5 -2.5,-2.5Z" style="fill:#fff;fill-rule:nonzero;"/><path id="code-brackets1" serif:id="code-brackets" d="M1256.74,469.013l0,-2l-3,0l0,-12l3,0l0,-2l-5,0l0,16m16,0l0,-16l-5,0l0,2l3,0l0,12l-3,0l0,2l5,0Z" style="fill:#fff;fill-rule:nonzero;"/><path id="code-tags1" serif:id="code-tags" d="M1257.14,526.928l-4.6,4.6l4.6,4.6l-1.4,1.4l-6,-6l6,-6l1.4,1.4Zm5.2,0l4.6,4.6l-4.6,4.6l1.4,1.4l6,-6l-6,-6l-1.4,1.4Z" style="fill:#fff;fill-rule:nonzero;"/></g><g><path id="settings1" serif:id="settings" d="M1229.93,342.784c1.933,0 3.5,1.567 3.5,3.5c0,1.933 -1.567,3.5 -3.5,3.5c-1.933,0 -3.5,-1.567 -3.5,-3.5c0,-1.933 1.567,-3.5 3.5,-3.5Zm-7.429,2.524c-0.042,0.321 -0.07,0.645 -0.07,0.976c0,0.331 0.028,0.655 0.07,0.976l-2.113,1.654c-0.188,0.152 -0.243,0.422 -0.118,0.638l2,3.464c0.124,0.216 0.386,0.304 0.612,0.217l2.489,-1.003c0.516,0.396 1.081,0.731 1.69,0.983l0.375,2.65c0.038,0.238 0.245,0.421 0.494,0.421l4,0c0.25,0 0.456,-0.183 0.494,-0.421l0.375,-2.649c0.61,-0.253 1.175,-0.588 1.691,-0.984l2.488,1.003c0.226,0.087 0.488,-0.001 0.612,-0.217l2,-3.464c0.125,-0.216 0.07,-0.486 -0.118,-0.638l-2.112,-1.654c0.042,-0.32 0.07,-0.645 0.07,-0.976c0,-0.331 -0.028,-0.656 -0.07,-0.976l2.112,-1.653c0.188,-0.153 0.243,-0.423 0.118,-0.639l-2,-3.464c-0.124,-0.216 -0.386,-0.304 -0.612,-0.217l-2.489,1.003c-0.516,-0.396 -1.081,-0.731 -1.69,-0.983l-0.375,-2.65c-0.038,-0.238 -0.244,-0.421 -0.494,-0.421l-4,0c-0.249,0 -0.456,0.183 -0.494,0.421l-0.375,2.65c-0.608,0.253 -1.173,0.587 -1.689,0.984l-2.49,-1.004c-0.226,-0.087 -0.488,0.001 -0.612,0.217l-2,3.464c-0.125,0.216 -0.07,0.486 0.118,0.639l2.113,1.653Z" style="fill:#fff;fill-rule:nonzero;"/><path id="content-save-all1" serif:id="content-save-all" d="M1234.93,265.469l0,-4l-10,0l0,4l10,0Zm-3,10c1.66,0 3,-1.34 3,-3c0,-1.66 -1.34,-3 -3,-3c-1.66,0 -3,1.34 -3,3c0,1.66 1.34,3 3,3Zm5,-16l4,4l0,12c0,1.1 -0.9,2 -2,2l-14,0c-1.11,0 -2,-0.9 -2,-2l0,-14c0,-1.1 0.89,-2 2,-2l12,0Zm-18,6l2,0l0,14l14,0l0,2l-14,0c-1.1,0 -2,-0.9 -2,-2l0,-14Z" style="fill:#fff;fill-rule:nonzero;"/><path id="code-braces1" serif:id="code-braces" d="M1233.93,505.469c1.105,0 2,-0.895 2,-2l0,-4c0,-1.104 0.895,-2 2,-2l1,0l0,-2l-1,0c-1.105,0 -2,-0.895 -2,-2l0,-4c0,-1.104 -0.928,-1.732 -2,-2l-2,0l0,2l2,0l0,5c0,1.105 0.895,2 2,2c-1.105,0 -2,0.896 -2,2l0,5l-2,0l0,2m-6,0c-1.105,0 -2,-0.895 -2,-2l0,-4c0,-1.104 -0.895,-2 -2,-2l-1,0l0,-2l1,0c1.105,0 2,-0.895 2,-2l0,-4c0,-1.104 0.928,-1.732 2,-2l2,0l0,2l-2,0l0,5c0,1.105 -0.895,2 -2,2c1.105,0 2,0.896 2,2l0,5l2,0l0,2l-2,0Z" style="fill:#fff;fill-rule:nonzero;"/><path id="android-debug-bridge1" serif:id="android-debug-bridge" d="M1232.93,418.655c-0.553,0 -1,-0.448 -1,-1c0,-0.552 0.447,-1 1,-1c0.553,0 1,0.448 1,1c0,0.552 -0.447,1 -1,1Zm-6,0c-0.553,0 -1,-0.448 -1,-1c0,-0.552 0.447,-1 1,-1c0.553,0 1,0.448 1,1c0,0.552 -0.447,1 -1,1Zm7.123,-4.631l2.099,-2.099l-0.825,-0.826l-2.304,2.305c-0.937,-0.464 -1.978,-0.749 -3.093,-0.749c-1.115,0 -2.156,0.285 -3.093,0.749l-2.305,-2.305l-0.824,0.826l2.099,2.099c-1.736,1.273 -2.877,3.312 -2.877,5.631l0,1l14,0l0,-1c0,-2.319 -1.141,-4.358 -2.877,-5.631Zm-11.123,11.631c0,3.866 3.134,7 7,7c3.866,0 7,-3.134 7,-7l0,-4l-14,0l0,4Z" style="fill:#fff;fill-rule:nonzero;"/></g></g></g></g></svg>