<?xml version="1.0" encoding="UTF-8" standalone="no"?><!DOCTYPE svg PUBLIC "-//W3C//DTD SVG 1.1//EN" "http://www.w3.org/Graphics/SVG/1.1/DTD/svg11.dtd"><svg width="100%" height="100%" viewBox="0 0 375 667" version="1.1" xmlns="http://www.w3.org/2000/svg" xmlns:xlink="http://www.w3.org/1999/xlink" xml:space="preserve" xmlns:serif="http://www.serif.com/" style="fill-rule:evenodd;clip-rule:evenodd;stroke-linejoin:round;stroke-miterlimit:1.41421;"><rect id="iPhone-6-7-8" serif:id="iPhone 6/7/8" x="0" y="0" width="375" height="667" style="fill:none;"/><clipPath id="_clip1"><rect id="iPhone-6-7-81" serif:id="iPhone 6/7/8" x="0" y="0" width="375" height="667"/></clipPath><g clip-path="url(#_clip1)"><g><g opacity="0.2"><path d="M108.17,428.487l-0.787,1.72l-1.72,0.786l1.72,0.787l0.787,1.72l0.786,-1.72l1.72,-0.787l-1.72,-0.786l-0.786,-1.72Zm-6.269,-6.896l-1.57,3.443l-3.443,1.574l3.443,1.569l1.57,3.444l1.571,-3.444l3.446,-1.569l-3.446,-1.574l-1.571,-3.443Zm-37.806,5.017c-1.04,0 -1.88,0.84 -1.88,1.881c0,0.821 -0.727,1.254 -1.254,1.254c0.577,0.764 1.561,1.253 2.507,1.253c1.386,0 2.508,-1.122 2.508,-2.507c0,-1.041 -0.84,-1.881 -1.881,-1.881Zm8.594,-5.873l-0.84,-0.84c-0.244,-0.245 -0.639,-0.245 -0.884,0l-5.616,5.616l1.724,1.724l5.616,-5.616c0.245,-0.245 0.245,-0.64 0,-0.884Zm35.481,-1.024l-0.787,1.721l-1.72,0.786l1.72,0.787l0.787,1.72l0.786,-1.72l1.72,-0.787l-1.72,-0.786l-0.786,-1.721Zm-19.433,-10.03l-8.776,0c-0.69,0 -1.254,-0.564 -1.254,-1.254l0,-8.776l1.254,0l0,8.776l8.776,0l0,1.254Zm2.507,-2.507l-8.776,0c-0.696,0 -1.253,-0.565 -1.253,-1.254l0,-8.776c0,-0.69 0.557,-1.254 1.253,-1.254l7.522,0l2.508,2.508l0,7.522c0,0.689 -0.564,1.253 -1.254,1.254Zm-4.388,-1.254c1.041,0 1.881,-0.84 1.881,-1.881c0,-1.04 -0.84,-1.88 -1.881,-1.88c-1.04,0 -1.88,0.84 -1.88,1.88c0,1.041 0.84,1.881 1.88,1.881Zm1.881,-6.269l0,-2.507l-6.269,0l0,2.507l6.269,0Zm-16.183,-22.79c-0.001,-0.007 -0.003,-0.013 -0.004,-0.021c-0.002,-0.013 -0.005,-0.027 -0.008,-0.04c-0.002,-0.008 -0.005,-0.016 -0.008,-0.024c-0.004,-0.012 -0.008,-0.023 -0.012,-0.035c-0.004,-0.008 -0.008,-0.016 -0.011,-0.024c-0.005,-0.011 -0.011,-0.021 -0.017,-0.032c-0.004,-0.008 -0.009,-0.015 -0.013,-0.022c-0.007,-0.01 -0.014,-0.02 -0.021,-0.03c-0.005,-0.007 -0.011,-0.014 -0.017,-0.021c-0.007,-0.009 -0.015,-0.018 -0.024,-0.026c-0.006,-0.006 -0.012,-0.013 -0.019,-0.019c-0.009,-0.008 -0.018,-0.016 -0.028,-0.023c-0.007,-0.006 -0.014,-0.011 -0.021,-0.017c-0.003,-0.002 -0.006,-0.004 -0.009,-0.006l-5.156,-3.437c-0.163,-0.109 -0.375,-0.109 -0.538,0l-5.157,3.437c-0.003,0.002 -0.005,0.004 -0.008,0.006c-0.007,0.006 -0.015,0.011 -0.022,0.017c-0.009,0.007 -0.018,0.015 -0.027,0.023c-0.007,0.006 -0.013,0.013 -0.02,0.019c-0.008,0.008 -0.016,0.017 -0.024,0.026c-0.005,0.007 -0.011,0.014 -0.016,0.021c-0.008,0.01 -0.014,0.02 -0.021,0.03c-0.005,0.007 -0.009,0.014 -0.014,0.022c-0.006,0.011 -0.011,0.021 -0.016,0.032c-0.004,0.008 -0.008,0.016 -0.011,0.024c-0.005,0.012 -0.009,0.023 -0.012,0.035c-0.003,0.008 -0.006,0.016 -0.008,0.024c-0.004,0.013 -0.006,0.027 -0.008,0.04c-0.002,0.008 -0.003,0.014 -0.004,0.021c-0.003,0.021 -0.005,0.042 -0.005,0.064l0,3.437c0,0.022 0.002,0.043 0.005,0.064c0.001,0.007 0.002,0.014 0.004,0.021c0.002,0.013 0.004,0.027 0.008,0.04c0.002,0.008 0.005,0.016 0.008,0.024c0.003,0.012 0.007,0.024 0.012,0.035c0.003,0.009 0.007,0.016 0.011,0.024c0.005,0.011 0.01,0.022 0.016,0.032c0.005,0.008 0.009,0.015 0.014,0.023c0.007,0.01 0.013,0.019 0.021,0.029c0.005,0.007 0.011,0.014 0.016,0.021c0.008,0.009 0.016,0.018 0.024,0.026c0.007,0.007 0.013,0.013 0.02,0.019c0.009,0.008 0.018,0.016 0.027,0.023c0.007,0.006 0.015,0.012 0.022,0.017c0.003,0.002 0.005,0.004 0.008,0.006l5.157,3.438c0.081,0.054 0.175,0.081 0.269,0.081c0.094,0 0.187,-0.027 0.269,-0.081l5.156,-3.438c0.003,-0.002 0.006,-0.004 0.009,-0.006c0.007,-0.005 0.014,-0.011 0.021,-0.017c0.01,-0.007 0.019,-0.015 0.028,-0.023c0.007,-0.006 0.013,-0.012 0.019,-0.019c0.009,-0.008 0.017,-0.017 0.024,-0.026c0.006,-0.007 0.012,-0.014 0.017,-0.021c0.007,-0.01 0.014,-0.019 0.021,-0.029c0.004,-0.008 0.009,-0.015 0.013,-0.023c0.006,-0.01 0.012,-0.021 0.017,-0.032c0.003,-0.008 0.007,-0.015 0.011,-0.024c0.004,-0.011 0.008,-0.023 0.012,-0.035c0.003,-0.008 0.006,-0.016 0.008,-0.024c0.003,-0.013 0.006,-0.027 0.008,-0.04c0.001,-0.007 0.003,-0.014 0.004,-0.021c0.003,-0.021 0.004,-0.042 0.004,-0.064l0,-3.437c0,-0.022 -0.001,-0.043 -0.004,-0.064Zm31.853,-5.35c-3.461,0 -6.268,2.806 -6.268,6.268c0,2.77 1.796,5.119 4.287,5.948c0.314,0.058 0.428,-0.136 0.428,-0.302c0,-0.149 -0.005,-0.543 -0.008,-1.066c-1.744,0.379 -2.112,-0.84 -2.112,-0.84c-0.285,-0.725 -0.696,-0.917 -0.696,-0.917c-0.569,-0.389 0.043,-0.381 0.043,-0.381c0.629,0.044 0.96,0.646 0.96,0.646c0.559,0.957 1.468,0.681 1.825,0.52c0.057,-0.405 0.219,-0.681 0.398,-0.838c-1.392,-0.158 -2.856,-0.696 -2.856,-3.098c0,-0.684 0.245,-1.244 0.646,-1.682c-0.065,-0.158 -0.28,-0.796 0.061,-1.659c0,0 0.526,-0.168 1.724,0.643c0.5,-0.139 1.036,-0.209 1.569,-0.211c0.533,0.002 1.069,0.072 1.569,0.211c1.197,-0.811 1.722,-0.643 1.722,-0.643c0.342,0.863 0.127,1.501 0.063,1.659c0.402,0.438 0.644,0.998 0.644,1.682c0,2.408 -1.466,2.938 -2.862,3.093c0.225,0.194 0.426,0.577 0.426,1.161c0,0.838 -0.008,1.514 -0.008,1.72c0,0.168 0.113,0.363 0.431,0.301c2.489,-0.83 4.283,-3.178 4.283,-5.947c0,-3.462 -2.807,-6.268 -6.269,-6.268Zm-37.975,11.383l-3.799,-2.532l1.697,-1.135l2.102,1.406l0,2.261Zm0.97,0l0,-2.261l2.102,-1.406l1.696,1.135l-3.798,2.532Zm-0.485,-3.103l-1.715,-1.147l1.715,-1.147l1.715,1.147l-1.715,1.147Zm-4.672,-1.959l1.213,0.812l-1.213,0.811l0,-1.623Zm9.344,1.623l-1.213,-0.811l1.213,-0.812l0,1.623Zm-4.187,-5.062l3.798,2.532l-1.696,1.135l-2.102,-1.406l0,-2.261Zm-0.97,0l0,2.261l-2.102,1.406l-1.697,-1.135l3.799,-2.532Zm-27.723,-12.979l2.507,0l0,1.253l-2.507,0c-0.692,0 -1.254,-0.561 -1.254,-1.253l0,-2.508l1.254,0l0,2.508Zm8.776,1.253l-2.508,0l0,-1.253l2.508,0l0,-2.508l1.253,0l0,2.508c0,0.692 -0.561,1.253 -1.253,1.253Zm-38.402,0l-12.537,0l0,-11.283l1.254,0l0,10.03l1.253,0l0,-5.642l2.508,0l0,5.642l1.253,0l0,-8.149l2.508,0l0,8.149l1.253,0l0,-3.134l2.508,0l0,4.387Zm77.773,-1.137l-2.507,0c-0.157,0 -0.286,-0.115 -0.31,-0.264l-0.235,-1.661c-0.382,-0.158 -0.736,-0.368 -1.059,-0.616l-1.561,0.628c-0.141,0.055 -0.305,0 -0.383,-0.136l-1.254,-2.171c-0.078,-0.135 -0.044,-0.305 0.074,-0.4l1.324,-1.037c-0.026,-0.2 -0.044,-0.404 -0.044,-0.612c0,-0.207 0.018,-0.411 0.044,-0.611l-1.324,-1.037c-0.118,-0.095 -0.152,-0.265 -0.074,-0.4l1.254,-2.171c0.078,-0.136 0.242,-0.191 0.383,-0.136l1.56,0.628c0.324,-0.248 0.678,-0.458 1.06,-0.617l0.235,-1.66c0.024,-0.149 0.153,-0.264 0.31,-0.264l2.507,0c0.156,0 0.286,0.115 0.31,0.264l0.235,1.661c0.382,0.158 0.736,0.368 1.059,0.616l1.56,-0.628c0.142,-0.055 0.306,0 0.384,0.136l1.254,2.171c0.078,0.135 0.044,0.305 -0.074,0.4l-1.325,1.037c0.027,0.201 0.044,0.404 0.044,0.611c0,0.208 -0.017,0.411 -0.044,0.612l1.325,1.037c0.118,0.095 0.152,0.265 0.074,0.4l-1.254,2.171c-0.078,0.136 -0.242,0.191 -0.384,0.136l-1.56,-0.629c-0.324,0.249 -0.678,0.458 -1.059,0.617l-0.235,1.661c-0.024,0.149 -0.154,0.264 -0.31,0.264Zm-1.254,-4.075c-1.211,0 -2.193,-0.982 -2.193,-2.194c0,-1.211 0.982,-2.193 2.193,-2.193c1.212,0 2.194,0.982 2.194,2.193c0,1.212 -0.982,2.194 -2.194,2.194Zm-36.864,-2.31l-1.253,0l0,-2.507l-2.508,0l0,-1.254l2.508,0c0.692,0 1.253,0.562 1.253,1.254l0,2.507Zm-7.522,-2.507l-2.507,0l0,2.507l-1.254,0l0,-2.507c0,-0.692 0.562,-1.254 1.254,-1.254l2.507,0l0,1.254Zm-16.156,-14.141l-1.253,0l0,-2.507l-6.269,0c-0.692,0 -1.253,-0.561 -1.253,-1.254l0,-6.268l-2.508,0l0,-1.254l2.508,0l0,-2.507l1.253,0l0,10.029l10.03,0l0,1.254l-2.508,0l0,2.507Zm44.364,-0.921l-5.015,0c-0.865,0 -1.567,-0.702 -1.567,-1.567l0,-10.657c0,-0.865 0.702,-1.567 1.567,-1.567l5.015,0c0.866,0 1.567,0.702 1.567,1.567l0,10.657c0,0.865 -0.701,1.567 -1.567,1.567Zm-2.507,-0.627c-0.519,0 -0.94,-0.421 -0.94,-0.94c0,-0.519 0.421,-0.941 0.94,-0.941c0.519,0 0.94,0.422 0.94,0.941c0,0.519 -0.421,0.94 -0.94,0.94Zm37.487,-13.949c-3.464,0 -6.265,2.806 -6.265,6.268c0,3.463 2.801,6.269 6.265,6.269c3.465,0 6.272,-2.806 6.272,-6.269c0,-3.462 -2.807,-6.268 -6.272,-6.268Zm-34.666,11.442l0,-8.776l-5.642,0l0,8.776l5.642,0Zm35.867,-2.666l-2.395,0c0.268,0.897 0.675,1.732 1.197,2.485c0.522,-0.753 0.93,-1.588 1.198,-2.485Zm-3.688,0l-1.849,0c0.601,1.038 1.561,1.839 2.713,2.233c-0.376,-0.697 -0.662,-1.449 -0.864,-2.233Zm6.829,0l-1.848,0c-0.203,0.783 -0.489,1.534 -0.865,2.232c1.152,-0.395 2.112,-1.195 2.713,-2.232Zm-83.686,1.706l-1.253,0l0,-5.014l-5.015,0l0,-1.254l5.015,0c0.692,0 1.253,0.561 1.253,1.254l0,5.014Zm80.814,-2.96c0.06,-0.41 0.101,-0.827 0.101,-1.254c0,-0.426 -0.041,-0.843 -0.101,-1.253l-2.933,0c-0.06,0.41 -0.1,0.827 -0.1,1.253c0,0.427 0.04,0.844 0.1,1.254l2.933,0Zm3.384,0c0.104,-0.401 0.165,-0.82 0.165,-1.254c0,-0.433 -0.061,-0.852 -0.165,-1.253l-2.116,0c0.051,0.412 0.087,0.828 0.087,1.253c0,0.426 -0.036,0.842 -0.087,1.254l2.116,0Zm-7.584,0c-0.052,-0.412 -0.087,-0.828 -0.087,-1.254c0,-0.425 0.035,-0.841 0.087,-1.253l-2.117,0c-0.104,0.401 -0.164,0.82 -0.164,1.253c0,0.434 0.06,0.853 0.164,1.254l2.117,0Zm0.243,-3.761c0.202,-0.785 0.488,-1.536 0.864,-2.233c-1.152,0.394 -2.112,1.195 -2.713,2.233l1.849,0Zm6.829,0c-0.601,-1.037 -1.561,-1.837 -2.713,-2.232c0.376,0.698 0.662,1.449 0.865,2.232l1.848,0Zm-3.141,0c-0.268,-0.897 -0.676,-1.732 -1.198,-2.485c-0.522,0.753 -0.929,1.588 -1.197,2.485l2.395,0Zm-15.615,-19.024l0,2.508c0,2.423 -1.964,4.388 -4.388,4.388c-2.423,0 -4.387,-1.965 -4.387,-4.388l0,-2.508l8.775,0Zm-51.865,-6.224l9.944,0l-0.907,10.156l-4.068,1.128l-4.064,-1.129l-0.905,-10.155Zm-33.555,6.896c0.692,0 1.253,0.561 1.253,1.253c0,0.693 -0.561,1.254 -1.253,1.254c-0.693,0 -1.254,-0.561 -1.254,-1.254c0,-0.692 0.561,-1.253 1.254,-1.253Zm41.535,-3.574l0.111,-1.246l-6.239,0l0.336,3.767l4.317,0l-0.145,1.615l-1.388,0.375l-1.389,-0.374l-0.093,-1.038l-1.25,0l0.178,2l2.554,0.708l2.552,-0.708l0.342,-3.824l-4.539,0l-0.114,-1.275l4.767,0Zm-46.299,0.565c1.107,0 2.005,0.898 2.005,2.006c0,1.108 -0.898,2.006 -2.005,2.006c-1.108,0 -2.006,-0.898 -2.006,-2.006c0,-1.108 0.898,-2.006 2.006,-2.006Zm90.184,1.711l-8.775,0l0,-0.627c0,-1.454 0.715,-2.732 1.803,-3.53l-1.316,-1.316l0.517,-0.518l1.445,1.445c0.587,-0.291 1.24,-0.469 1.938,-0.469c0.699,0 1.352,0.178 1.939,0.469l1.445,-1.445l0.517,0.518l-1.316,1.316c1.088,0.798 1.803,2.076 1.803,3.53l0,0.627Zm-85.17,-6.224c1.662,0 3.009,1.347 3.009,3.008c0,1.662 -1.347,3.009 -3.009,3.009c-1.661,0 -3.009,-1.347 -3.009,-3.009c0,-1.661 1.348,-3.008 3.009,-3.008Zm82.663,4.97c-0.347,0 -0.627,-0.281 -0.627,-0.627c0,-0.346 0.28,-0.627 0.627,-0.627c0.347,0 0.627,0.281 0.627,0.627c0,0.346 -0.28,0.627 -0.627,0.627Zm-3.761,0c-0.347,0 -0.627,-0.281 -0.627,-0.627c0,-0.346 0.28,-0.627 0.627,-0.627c0.347,0 0.627,0.281 0.627,0.627c0,0.346 -0.28,0.627 -0.627,0.627Zm-11.79,-17.498l-3.135,0l0,-1.254l1.881,0l0,-7.522l-1.881,0l0,-1.253l3.135,0l0,10.029Zm-6.896,-8.776l-1.88,0l0,7.522l1.88,0l0,1.254l-3.134,0l0,-10.029l3.134,0l0,1.253Zm38.745,7.443l-1.881,0l1.254,-2.507l-1.88,0l0,-3.761l3.761,0l0,3.761l-1.254,2.507Zm5.015,0l-1.881,0l1.254,-2.507l-1.881,0l0,-3.761l3.761,0l0,3.761l-1.253,2.507Zm-24.447,-30.295l-1.254,0l0,3.134c0,0.692 -0.561,1.254 -1.254,1.254c0.693,0 1.254,0.561 1.254,1.253l0,3.134l1.254,0l0,1.254l-1.254,0c-0.672,-0.168 -1.254,-0.561 -1.254,-1.254l0,-2.507c0,-0.692 -0.561,-1.254 -1.253,-1.254l-0.627,0l0,-1.253l0.627,0c0.692,0 1.253,-0.562 1.253,-1.254l0,-2.507c0,-0.693 0.562,-1.254 1.254,-1.254l1.254,0l0,1.254Zm3.761,10.029l-1.254,0l0,-1.254l1.254,0l0,-3.134c0,-0.692 0.561,-1.253 1.254,-1.253c-0.693,0 -1.254,-0.562 -1.254,-1.254l0,-3.134l-1.254,0l0,-1.254l1.254,0c0.692,0 1.254,0.561 1.254,1.254l0,2.507c0,0.692 0.561,1.254 1.253,1.254l0.627,0l0,1.253l-0.627,0c-0.692,0 -1.253,0.562 -1.253,1.254l0,2.507c0,0.693 -0.582,1.086 -1.254,1.254Zm13.521,-33.26l1.006,0.65c-0.782,1.184 -1.243,3.031 -1.244,4.993c0.002,1.962 0.463,3.809 1.245,4.991l-1.005,0.65c-0.947,-1.425 -1.492,-3.48 -1.493,-5.641c0.001,-2.161 0.544,-4.216 1.491,-5.643Zm7.044,0c0.948,1.425 1.492,3.48 1.494,5.64c-0.001,2.161 -0.544,4.217 -1.491,5.643l-1.007,-0.65c0.783,-1.183 1.243,-3.031 1.245,-4.993c-0.002,-1.962 -0.463,-3.808 -1.246,-4.991l1.005,-0.649Zm-40.128,8.526l2.883,-2.884l-2.883,-2.883l0.877,-0.878l3.761,3.761l-3.761,3.761l-0.877,-0.877Zm-3.26,0l-2.883,-2.884l2.883,-2.883l-0.878,-0.878l-3.761,3.761l3.761,3.761l0.878,-0.877Z" style="fill:#00cf68;"/><path d="M266.956,433.5c-0.947,-1.425 -1.491,-3.48 -1.493,-5.64c0.001,-2.161 0.544,-4.217 1.491,-5.643l1.007,0.65c-0.783,1.183 -1.243,3.031 -1.245,4.993c0.002,1.962 0.463,3.808 1.246,4.991l-1.006,0.649Zm7.045,0l-1.006,-0.65c0.782,-1.184 1.242,-3.031 1.244,-4.993c-0.002,-1.962 -0.463,-3.809 -1.245,-4.991l1.005,-0.65c0.947,1.425 1.491,3.48 1.493,5.641c-0.001,2.161 -0.544,4.216 -1.491,5.643Zm33.084,-8.526l-2.883,2.884l2.883,2.883l-0.877,0.878l-3.761,-3.761l3.761,-3.761l0.877,0.877Zm3.26,0l2.883,2.884l-2.883,2.883l0.877,0.878l3.762,-3.761l-3.762,-3.761l-0.877,0.877Zm-17.808,-24.734c0.672,0.168 1.254,0.561 1.254,1.254l0,2.507c0,0.692 0.561,1.254 1.253,1.254l0.627,0l0,1.253l-0.627,0c-0.692,0 -1.253,0.562 -1.253,1.254l0,2.507c0,0.693 -0.562,1.254 -1.254,1.254l-1.254,0l0,-1.254l1.254,0l0,-3.134c0,-0.692 0.561,-1.254 1.254,-1.254c-0.693,0 -1.254,-0.561 -1.254,-1.253l0,-3.134l-1.254,0l0,-1.254l1.254,0Zm-3.761,1.254l-1.254,0l0,3.134c0,0.692 -0.561,1.253 -1.254,1.253c0.693,0 1.254,0.562 1.254,1.254l0,3.134l1.254,0l0,1.254l-1.254,0c-0.692,0 -1.254,-0.561 -1.254,-1.254l0,-2.507c0,-0.692 -0.561,-1.254 -1.253,-1.254l-0.627,0l0,-1.253l0.627,0c0.692,0 1.253,-0.562 1.253,-1.254l0,-2.507c0,-0.693 0.582,-1.086 1.254,-1.254l1.254,0l0,1.254Zm18.059,-22.853l0,1.254l-1.881,0l0,7.522l1.881,0l0,1.253l-3.135,0l0,-10.029l3.135,0Zm6.895,0l0,10.029l-3.134,0l0,-1.253l1.88,0l0,-7.522l-1.88,0l0,-1.254l3.134,0Zm-39.372,1.333l0,3.761l-1.253,2.507l-1.881,0l1.254,-2.507l-1.881,0l0,-3.761l3.761,0Zm-5.014,0l0,3.761l-1.254,2.507l-1.881,0l1.254,-2.507l-1.881,0l0,-3.761l3.762,0Zm101.468,-13.861c-1.662,0 -3.009,-1.347 -3.009,-3.008c0,-1.662 1.347,-3.009 3.009,-3.009c1.661,0 3.009,1.347 3.009,3.009c0,1.661 -1.348,3.008 -3.009,3.008Zm-76.395,-7.129l0,2.508c0,2.423 -1.964,4.388 -4.388,4.388c-2.423,0 -4.387,-1.965 -4.387,-4.388l0,-2.508l8.775,0Zm33.146,-4.781l9.944,0l-0.906,10.156l-4.068,1.128l-4.064,-1.129l-0.906,-10.155Zm8.092,2.076l-6.239,0l0.336,3.767l4.316,0l-0.144,1.615l-1.389,0.375l-1.389,-0.374l-0.092,-1.038l-1.251,0l0.179,2l2.553,0.708l2.553,-0.708l0.342,-3.824l-4.539,0l-0.114,-1.275l4.766,0l0.112,-1.246Zm40.171,5.321c-1.107,0 -2.005,-0.898 -2.005,-2.006c0,-1.108 0.898,-2.006 2.005,-2.006c1.108,0 2.006,0.898 2.006,2.006c0,1.108 -0.898,2.006 -2.006,2.006Zm-4.764,-3.009c-0.692,0 -1.253,-0.561 -1.253,-1.253c0,-0.693 0.561,-1.254 1.253,-1.254c0.693,0 1.254,0.561 1.254,1.254c0,0.692 -0.561,1.253 -1.254,1.253Zm-78.448,-4.39l1.315,-1.316l-0.516,-0.518l-1.445,1.445c-0.587,-0.291 -1.24,-0.469 -1.939,-0.469c-0.698,0 -1.351,0.178 -1.938,0.469l-1.445,-1.445l-0.517,0.518l1.316,1.316c-1.088,0.798 -1.803,2.076 -1.803,3.53l0,0.626l8.775,0l0,-0.626c0,-1.454 -0.715,-2.732 -1.803,-3.53Zm-0.704,2.903c-0.347,0 -0.627,-0.281 -0.627,-0.627c0,-0.346 0.28,-0.627 0.627,-0.627c0.347,0 0.627,0.281 0.627,0.627c0,0.346 -0.28,0.627 -0.627,0.627Zm-3.761,0c-0.347,0 -0.627,-0.281 -0.627,-0.627c0,-0.346 0.28,-0.627 0.627,-0.627c0.347,0 0.627,0.281 0.627,0.627c0,0.346 -0.28,0.627 -0.627,0.627Zm-16.921,-13.104c3.464,0 6.265,-2.806 6.265,-6.268c0,-3.463 -2.801,-6.269 -6.265,-6.269c-3.465,0 -6.272,2.806 -6.272,6.269c0,3.462 2.807,6.268 6.272,6.268Zm39.994,-14.576c0.866,0 1.568,0.702 1.568,1.567l0,10.657c0,0.865 -0.702,1.567 -1.568,1.567l-5.014,0c-0.866,0 -1.567,-0.702 -1.567,-1.567l0,-10.657c0,-0.865 0.701,-1.567 1.567,-1.567l5.014,0Zm-39.997,13.3c-0.522,-0.753 -0.93,-1.588 -1.198,-2.485l2.395,0c-0.268,0.897 -0.675,1.732 -1.197,2.485Zm37.49,-0.136c-0.519,0 -0.94,-0.421 -0.94,-0.94c0,-0.519 0.421,-0.941 0.94,-0.941c0.519,0 0.94,0.422 0.94,0.941c0,0.519 -0.421,0.94 -0.94,0.94Zm-35,-2.349l1.849,0c-0.601,1.038 -1.561,1.839 -2.713,2.233c0.376,-0.697 0.662,-1.448 0.864,-2.233Zm-6.829,0l1.848,0c0.203,0.783 0.489,1.534 0.865,2.232c-1.152,-0.395 -2.112,-1.195 -2.713,-2.232Zm84.939,-11.736l0,2.507l6.269,0c0.692,0 1.253,0.561 1.253,1.254l0,6.268l2.508,0l0,1.254l-2.508,0l0,2.507l-1.253,0l0,-10.029l-10.03,0l0,-1.254l2.508,0l0,-2.507l1.253,0Zm-40.289,11.578l0,-8.776l-5.642,0l0,8.776l5.642,0Zm40.289,-6.563l0,5.014l5.015,0l0,1.254l-5.015,0c-0.692,0 -1.253,-0.561 -1.253,-1.254l0,-5.014l1.253,0Zm-75.75,5.467c0.104,-0.401 0.164,-0.82 0.164,-1.253c0,-0.434 -0.06,-0.853 -0.164,-1.254l-2.117,0c0.052,0.412 0.087,0.828 0.087,1.254c0,0.425 -0.035,0.841 -0.087,1.253l2.117,0Zm-3.384,0c0.059,-0.41 0.1,-0.827 0.1,-1.253c0,-0.427 -0.041,-0.844 -0.1,-1.254l-2.933,0c-0.06,0.41 -0.101,0.827 -0.101,1.254c0,0.426 0.041,0.843 0.101,1.253l2.933,0Zm-4.201,0c-0.051,-0.412 -0.087,-0.828 -0.087,-1.253c0,-0.426 0.036,-0.842 0.087,-1.254l-2.116,0c-0.104,0.401 -0.165,0.82 -0.165,1.254c0,0.433 0.061,0.852 0.165,1.253l2.116,0Zm7.074,-3.761c-0.601,-1.038 -1.561,-1.839 -2.713,-2.233c0.376,0.697 0.662,1.449 0.864,2.233l1.849,0Zm-3.142,0c-0.268,-0.897 -0.675,-1.732 -1.197,-2.485c-0.522,0.753 -0.93,1.588 -1.198,2.485l2.395,0Zm-3.688,0c0.203,-0.783 0.489,-1.534 0.865,-2.232c-1.152,0.395 -2.112,1.195 -2.713,2.232l1.848,0Zm22.549,-29.754c0.157,0 0.286,0.115 0.31,0.264l0.235,1.661c0.382,0.158 0.736,0.368 1.059,0.616l1.56,-0.628c0.142,-0.055 0.306,0 0.384,0.136l1.254,2.171c0.078,0.135 0.044,0.305 -0.074,0.4l-1.324,1.037c0.026,0.2 0.044,0.404 0.044,0.612c0,0.207 -0.018,0.411 -0.044,0.611l1.324,1.037c0.118,0.095 0.152,0.265 0.074,0.4l-1.254,2.171c-0.078,0.136 -0.242,0.191 -0.384,0.136l-1.559,-0.628c-0.324,0.248 -0.678,0.458 -1.06,0.617l-0.235,1.66c-0.024,0.149 -0.153,0.264 -0.31,0.264l-2.507,0c-0.156,0 -0.286,-0.115 -0.31,-0.264l-0.235,-1.661c-0.382,-0.158 -0.736,-0.368 -1.059,-0.616l-1.561,0.628c-0.141,0.055 -0.305,0 -0.383,-0.136l-1.254,-2.171c-0.078,-0.135 -0.044,-0.305 0.074,-0.4l1.325,-1.037c-0.027,-0.201 -0.044,-0.404 -0.044,-0.611c0,-0.208 0.017,-0.411 0.044,-0.612l-1.325,-1.037c-0.118,-0.095 -0.152,-0.265 -0.074,-0.4l1.254,-2.171c0.078,-0.136 0.242,-0.191 0.383,-0.136l1.561,0.629c0.324,-0.249 0.678,-0.458 1.059,-0.617l0.235,-1.661c0.024,-0.149 0.154,-0.264 0.31,-0.264l2.507,0Zm36.864,6.385l0,2.507l2.508,0l0,1.254l-2.508,0c-0.692,0 -1.253,-0.562 -1.253,-1.254l0,-2.507l1.253,0Zm10.03,0l0,2.507c0,0.692 -0.562,1.254 -1.254,1.254l-2.507,0l0,-1.254l2.507,0l0,-2.507l1.254,0Zm40.909,3.761l-1.254,0l0,-10.03l-1.253,0l0,5.642l-2.508,0l0,-5.642l-1.253,0l0,8.149l-2.508,0l0,-8.149l-1.254,0l0,3.134l-2.507,0l0,-4.387l12.537,0l0,11.283Zm-89.057,-6.071c1.212,0 2.194,0.982 2.194,2.194c0,1.211 -0.982,2.193 -2.194,2.193c-1.211,0 -2.194,-0.982 -2.194,-2.193c0,-1.212 0.983,-2.194 2.194,-2.194Zm46.894,-5.212c0.692,0 1.254,0.561 1.254,1.253l0,2.508l-1.254,0l0,-2.508l-2.507,0l0,-1.253l2.507,0Zm-6.268,0l0,1.253l-2.508,0l0,2.508l-1.253,0l0,-2.508c0,-0.692 0.561,-1.253 1.253,-1.253l2.508,0Zm-59.431,-21.071c-3.462,0 -6.268,2.807 -6.268,6.269c0,2.769 1.796,5.119 4.286,5.948c0.314,0.057 0.428,-0.136 0.428,-0.302c0,-0.149 -0.005,-0.543 -0.008,-1.067c-1.744,0.379 -2.112,-0.84 -2.112,-0.84c-0.285,-0.724 -0.696,-0.917 -0.696,-0.917c-0.569,-0.389 0.043,-0.381 0.043,-0.381c0.63,0.044 0.961,0.646 0.961,0.646c0.559,0.958 1.467,0.682 1.824,0.521c0.057,-0.405 0.219,-0.681 0.398,-0.838c-1.392,-0.158 -2.856,-0.696 -2.856,-3.098c0,-0.684 0.245,-1.244 0.646,-1.682c-0.065,-0.159 -0.28,-0.796 0.061,-1.659c0,0 0.526,-0.169 1.724,0.643c0.5,-0.14 1.036,-0.209 1.569,-0.211c0.533,0.002 1.069,0.071 1.57,0.211c1.196,-0.812 1.722,-0.643 1.722,-0.643c0.342,0.863 0.127,1.5 0.062,1.659c0.402,0.438 0.645,0.998 0.645,1.682c0,2.408 -1.466,2.938 -2.862,3.093c0.224,0.194 0.425,0.576 0.425,1.161c0,0.838 -0.008,1.514 -0.008,1.72c0,0.167 0.113,0.362 0.431,0.301c2.489,-0.831 4.284,-3.179 4.284,-5.947c0,-3.462 -2.807,-6.269 -6.269,-6.269Zm31.854,6.877c0.001,0.007 0.003,0.013 0.004,0.021c0.002,0.013 0.005,0.027 0.008,0.04c0.002,0.008 0.005,0.016 0.008,0.024c0.004,0.012 0.008,0.023 0.012,0.035c0.004,0.008 0.007,0.016 0.011,0.024c0.005,0.011 0.011,0.021 0.017,0.032c0.004,0.008 0.009,0.015 0.013,0.022c0.007,0.01 0.014,0.02 0.021,0.03c0.005,0.007 0.011,0.014 0.017,0.021c0.007,0.009 0.015,0.018 0.024,0.026c0.006,0.006 0.012,0.013 0.019,0.019c0.009,0.008 0.018,0.016 0.027,0.023c0.008,0.006 0.015,0.011 0.022,0.017c0.003,0.002 0.006,0.004 0.008,0.006l5.157,3.437c0.163,0.109 0.375,0.109 0.538,0l5.157,-3.437c0.002,-0.002 0.005,-0.004 0.008,-0.006c0.007,-0.006 0.015,-0.011 0.022,-0.017c0.009,-0.007 0.018,-0.015 0.027,-0.023c0.007,-0.006 0.013,-0.013 0.02,-0.019c0.008,-0.008 0.016,-0.017 0.024,-0.026c0.005,-0.007 0.011,-0.014 0.016,-0.021c0.007,-0.01 0.014,-0.02 0.021,-0.03c0.005,-0.007 0.009,-0.014 0.014,-0.022c0.006,-0.011 0.011,-0.021 0.016,-0.032c0.004,-0.008 0.008,-0.016 0.011,-0.024c0.005,-0.012 0.009,-0.023 0.012,-0.035c0.003,-0.008 0.006,-0.016 0.008,-0.024c0.004,-0.013 0.006,-0.027 0.008,-0.04c0.002,-0.008 0.003,-0.014 0.004,-0.021c0.003,-0.021 0.005,-0.042 0.005,-0.064l0,-3.437c0,-0.022 -0.002,-0.043 -0.005,-0.064c-0.001,-0.007 -0.002,-0.014 -0.004,-0.021c-0.002,-0.013 -0.004,-0.027 -0.008,-0.04c-0.002,-0.008 -0.005,-0.016 -0.008,-0.024c-0.003,-0.012 -0.007,-0.024 -0.012,-0.035c-0.003,-0.009 -0.007,-0.016 -0.011,-0.024c-0.005,-0.011 -0.01,-0.022 -0.016,-0.032c-0.005,-0.008 -0.009,-0.015 -0.014,-0.023c-0.007,-0.01 -0.014,-0.019 -0.021,-0.029c-0.005,-0.007 -0.011,-0.014 -0.016,-0.021c-0.008,-0.009 -0.016,-0.018 -0.024,-0.026c-0.007,-0.007 -0.013,-0.013 -0.02,-0.019c-0.009,-0.008 -0.018,-0.016 -0.027,-0.023c-0.007,-0.006 -0.015,-0.012 -0.022,-0.017c-0.003,-0.002 -0.006,-0.004 -0.008,-0.006l-5.157,-3.438c-0.081,-0.054 -0.175,-0.081 -0.269,-0.081c-0.094,0 -0.187,0.027 -0.269,0.081l-5.157,3.438c-0.002,0.002 -0.005,0.004 -0.008,0.006c-0.007,0.005 -0.014,0.011 -0.022,0.017c-0.009,0.007 -0.018,0.015 -0.027,0.023c-0.007,0.006 -0.013,0.012 -0.019,0.019c-0.009,0.008 -0.017,0.017 -0.024,0.026c-0.006,0.007 -0.012,0.014 -0.017,0.021c-0.007,0.01 -0.014,0.019 -0.021,0.029c-0.004,0.008 -0.009,0.015 -0.013,0.023c-0.006,0.01 -0.012,0.021 -0.017,0.032c-0.004,0.008 -0.007,0.015 -0.011,0.024c-0.004,0.011 -0.008,0.023 -0.012,0.035c-0.003,0.008 -0.006,0.016 -0.008,0.024c-0.003,0.013 -0.006,0.027 -0.008,0.04c-0.001,0.007 -0.003,0.014 -0.004,0.021c-0.003,0.021 -0.005,0.042 -0.005,0.064l0,3.437c0,0.022 0.002,0.043 0.005,0.064Zm5.152,2.468l-3.799,-2.532l1.697,-1.135l2.102,1.406l0,2.261Zm0.97,0l0,-2.261l2.102,-1.406l1.697,1.135l-3.799,2.532Zm-0.485,-5.398l1.715,1.147l-1.715,1.147l-1.715,-1.147l1.715,-1.147Zm4.672,1.959l-1.213,-0.812l1.213,-0.811l0,1.623Zm-9.344,-1.623l1.213,0.811l-1.213,0.812l0,-1.623Zm4.187,-3.439l0,2.261l-2.102,1.406l-1.697,-1.135l3.799,-2.532Zm0.97,0l3.799,2.532l-1.697,1.135l-2.102,-1.406l0,-2.261Zm-24.812,-14.25l8.776,0l0,1.254l-8.776,0c-0.69,0 -1.254,-0.564 -1.254,-1.254l0,-8.776l1.254,0l0,8.776Zm11.283,-1.254l-8.776,0c-0.696,0 -1.253,-0.564 -1.253,-1.253l0,-8.776c0,-0.69 0.557,-1.254 1.253,-1.254l7.522,0l2.508,2.507l0,7.523c0,0.689 -0.564,1.253 -1.254,1.253Zm-4.388,-1.253c1.041,0 1.881,-0.84 1.881,-1.881c0,-1.04 -0.84,-1.88 -1.881,-1.88c-1.04,0 -1.88,0.84 -1.88,1.88c0,1.041 0.84,1.881 1.88,1.881Zm1.881,-8.776l-6.269,0l0,2.507l6.269,0l0,-2.507Zm-25.702,-11.284l0.787,-1.721l1.72,-0.786l-1.72,-0.787l-0.787,-1.72l-0.786,1.72l-1.72,0.787l1.72,0.786l0.786,1.721Zm38.432,-4.388c-1.041,0 -1.881,0.84 -1.881,1.88c0,0.821 -0.727,1.254 -1.254,1.254c0.577,0.765 1.561,1.254 2.508,1.254c1.385,0 2.507,-1.122 2.507,-2.508c0,-1.04 -0.84,-1.88 -1.88,-1.88Zm-32.163,2.508l1.57,-3.443l3.443,-1.574l-3.443,-1.569l-1.57,-3.444l-1.571,3.444l-3.446,1.569l3.446,1.574l1.571,3.443Zm40.757,-8.382l-0.84,-0.84c-0.245,-0.244 -0.64,-0.244 -0.884,0l-5.617,5.617l1.724,1.724l5.617,-5.617c0.244,-0.245 0.244,-0.639 0,-0.884Zm-47.026,1.486l0.787,-1.72l1.72,-0.786l-1.72,-0.787l-0.787,-1.72l-0.786,1.72l-1.72,0.787l1.72,0.786l0.786,1.72Z" style="fill:#00a0fa;"/></g></g></g></svg>